<svg width="61" height="55" viewBox="0 0 61 55" fill="none" xmlns="http://www.w3.org/2000/svg">
<rect x="0.662354" y="0.685059" width="60.3377" height="54.3149" rx="27.1575" fill="#003EB3"/>
<path d="M33.0733 36.6163C33.3436 36.62 33.6067 36.5214 33.8169 36.3379C33.9353 36.2345 34.0335 36.107 34.1062 35.9627C34.1788 35.8184 34.2243 35.6601 34.2401 35.4969C34.2559 35.3337 34.2417 35.1688 34.1983 35.0117C34.1549 34.8545 34.0832 34.7082 33.9872 34.5811L28.8804 27.8377L33.9536 21.197C34.0511 21.0705 34.1245 20.9246 34.1696 20.7675C34.2147 20.6104 34.2306 20.4453 34.2163 20.2817C34.202 20.1181 34.1579 19.9593 34.0864 19.8142C34.015 19.6692 33.9176 19.5408 33.7999 19.4366C33.6815 19.3217 33.5423 19.2344 33.3911 19.1804C33.2398 19.1263 33.0798 19.1065 32.921 19.1223C32.7622 19.138 32.6081 19.189 32.4684 19.272C32.3286 19.355 32.2062 19.4682 32.1089 19.6045L26.4369 27.0242C26.2642 27.2455 26.168 27.5243 26.1648 27.8132C26.1615 28.1021 26.2513 28.383 26.419 28.6081L32.1183 36.1565C32.2326 36.3087 32.3787 36.4297 32.5446 36.5096C32.7106 36.5895 32.8917 36.6261 33.0733 36.6163Z" fill="white"/>
</svg>
