<svg width="60" height="52" viewBox="0 0 60 52" fill="none" xmlns="http://www.w3.org/2000/svg">
<rect width="60" height="52" rx="26" fill="#E0E3EB"/>
<path d="M33.5078 34.1645C33.7781 34.165 34.0401 34.0703 34.2482 33.8967C34.3654 33.799 34.4622 33.679 34.5332 33.5436C34.6042 33.4081 34.6479 33.2599 34.6619 33.1075C34.6758 32.955 34.6598 32.8012 34.6146 32.655C34.5694 32.5088 34.496 32.373 34.3986 32.2554L29.2158 26.0159L34.2135 19.7647C34.3096 19.6457 34.3814 19.5087 34.4247 19.3616C34.468 19.2145 34.482 19.0603 34.4659 18.9078C34.4497 18.7552 34.4038 18.6074 34.3307 18.4728C34.2576 18.3382 34.1588 18.2194 34.04 18.1234C33.9203 18.0174 33.7801 17.9375 33.6283 17.8886C33.4764 17.8397 33.3162 17.823 33.1576 17.8393C32.999 17.8557 32.8454 17.9049 32.7066 17.9839C32.5678 18.0628 32.4467 18.1697 32.351 18.298L26.7633 25.2825C26.5931 25.4908 26.5001 25.7521 26.5001 26.0217C26.5001 26.2913 26.5931 26.5526 26.7633 26.7609L32.5476 33.7454C32.6637 33.8863 32.8111 33.9976 32.9779 34.0705C33.1448 34.1433 33.3263 34.1755 33.5078 34.1645Z" fill="#3C4563"/>
</svg>
