<svg width="61" height="53" viewBox="0 0 61 53" fill="none" xmlns="http://www.w3.org/2000/svg">
<rect width="60.1437" height="52.1437" rx="26.0719" fill="#E0E3EB"/>
<path d="M26.606 17.8895C26.3357 17.8876 26.0732 17.981 25.8642 18.1535C25.7466 18.2506 25.6491 18.3701 25.5775 18.5052C25.5058 18.6403 25.4613 18.7882 25.4465 18.9406C25.4318 19.093 25.4471 19.2468 25.4915 19.3933C25.5359 19.5397 25.6086 19.6759 25.7054 19.794L30.856 26.0601L25.8262 32.2855C25.7295 32.404 25.657 32.5407 25.613 32.6875C25.5689 32.8344 25.5541 32.9885 25.5695 33.1411C25.5848 33.2937 25.63 33.4418 25.7023 33.5768C25.7747 33.7118 25.8729 33.831 25.9913 33.9277C26.1104 34.0343 26.2502 34.1149 26.4018 34.1646C26.5534 34.2143 26.7136 34.2319 26.8722 34.2163C27.0309 34.2007 27.1847 34.1523 27.3239 34.0741C27.4631 33.9959 27.5847 33.8895 27.6812 33.7618L33.3048 26.8061C33.476 26.5987 33.5704 26.3379 33.5717 26.0683C33.5731 25.7987 33.4815 25.5369 33.3124 25.3277L27.564 18.3136C27.4487 18.1721 27.3018 18.06 27.1354 17.9863C26.9689 17.9126 26.7876 17.8795 26.606 17.8895Z" fill="#3C4563"/>
</svg>
