<svg width="60" height="54" viewBox="0 0 60 54" fill="none" xmlns="http://www.w3.org/2000/svg">
<rect width="60" height="54" rx="27" fill="#003EB3"/>
<path d="M27.6589 18.2523C27.3886 18.2517 27.1266 18.3532 26.9185 18.5391C26.8014 18.6438 26.7045 18.7724 26.6336 18.9175C26.5626 19.0626 26.5189 19.2214 26.5049 19.3848C26.4909 19.5481 26.507 19.7129 26.5521 19.8695C26.5973 20.0262 26.6707 20.1717 26.7681 20.2977L31.9509 26.9829L26.9532 33.6805C26.8571 33.8081 26.7854 33.9549 26.7421 34.1125C26.6988 34.2701 26.6848 34.4353 26.7009 34.5987C26.717 34.7622 26.7629 34.9205 26.836 35.0648C26.9091 35.209 27.0079 35.3362 27.1267 35.4391C27.2464 35.5527 27.3866 35.6383 27.5385 35.6907C27.6903 35.7431 27.8506 35.761 28.0092 35.7435C28.1678 35.7259 28.3213 35.6732 28.4601 35.5886C28.5989 35.5041 28.72 35.3895 28.8158 35.2521L34.4035 27.7687C34.5736 27.5455 34.6667 27.2655 34.6667 26.9767C34.6667 26.6878 34.5736 26.4078 34.4035 26.1847L28.6191 18.7013C28.5031 18.5503 28.3556 18.431 28.1888 18.353C28.022 18.275 27.8404 18.2405 27.6589 18.2523Z" fill="white"/>
</svg>
