<svg width="8" height="8" viewBox="0 0 8 8" fill="none" xmlns="http://www.w3.org/2000/svg">
<path d="M7.32366 6.10984C7.32366 6.22984 7.29699 6.35317 7.24032 6.47317C7.18366 6.59317 7.11033 6.7065 7.01366 6.81317C6.85033 6.99317 6.67033 7.12317 6.46699 7.2065C6.26699 7.28984 6.05033 7.33317 5.81699 7.33317C5.47699 7.33317 5.11366 7.25317 4.73033 7.08984C4.34699 6.9265 3.96366 6.7065 3.58366 6.42984C3.20033 6.14984 2.83699 5.83984 2.49033 5.4965C2.14699 5.14984 1.83699 4.7865 1.56033 4.4065C1.28699 4.0265 1.06699 3.6465 0.906992 3.26984C0.746992 2.88984 0.666992 2.5265 0.666992 2.17984C0.666992 1.95317 0.706992 1.7365 0.786992 1.5365C0.866992 1.33317 0.993659 1.1465 1.17033 0.979837C1.38366 0.769837 1.61699 0.666504 1.86366 0.666504C1.95699 0.666504 2.05033 0.686504 2.13366 0.726504C2.22033 0.766504 2.29699 0.826504 2.35699 0.913171L3.13033 2.00317C3.19033 2.0865 3.23366 2.16317 3.26366 2.2365C3.29366 2.3065 3.31033 2.3765 3.31033 2.43984C3.31033 2.51984 3.28699 2.59984 3.24033 2.6765C3.19699 2.75317 3.13366 2.83317 3.05366 2.91317L2.80033 3.1765C2.76366 3.21317 2.74699 3.2565 2.74699 3.30984C2.74699 3.3365 2.75033 3.35984 2.75699 3.3865C2.76699 3.41317 2.77699 3.43317 2.78366 3.45317C2.84366 3.56317 2.94699 3.7065 3.09366 3.87984C3.24366 4.05317 3.40366 4.22984 3.57699 4.4065C3.75699 4.58317 3.93033 4.7465 4.10699 4.8965C4.28033 5.04317 4.42366 5.14317 4.53699 5.20317C4.55366 5.20984 4.57366 5.21984 4.59699 5.22984C4.62366 5.23984 4.65033 5.24317 4.68033 5.24317C4.73699 5.24317 4.78033 5.22317 4.81699 5.1865L5.07033 4.9365C5.15366 4.85317 5.23366 4.78984 5.31033 4.74984C5.38699 4.70317 5.46366 4.67984 5.54699 4.67984C5.61033 4.67984 5.67699 4.69317 5.75033 4.72317C5.82366 4.75317 5.90033 4.7965 5.98366 4.85317L7.08699 5.6365C7.17366 5.6965 7.23366 5.7665 7.27032 5.84984C7.30366 5.93317 7.32366 6.0165 7.32366 6.10984Z" stroke="#676767" stroke-width="0.341458" stroke-miterlimit="10"/>
</svg>
