<svg width="62" height="42" viewBox="0 0 62 42" fill="none" xmlns="http://www.w3.org/2000/svg">
<path d="M49.3082 11.587C45.2547 21.5555 41.1959 31.5215 37.1319 41.4849C37.0877 41.6484 36.9827 41.7906 36.8369 41.8843C36.6912 41.9781 36.5147 42.0168 36.3412 41.9933C32.1929 41.9755 28.0445 41.9933 23.8935 41.9933C22.0486 41.9933 21.258 40.862 21.9353 39.197C26.6037 27.7303 31.2748 16.2662 35.9485 4.80463C36.5468 3.33782 37.1504 1.87102 37.7381 0.399138C37.8409 0.144926 37.9489 0.0101885 38.2652 0.0127306C43.4028 0.0228991 48.5395 0.0228991 53.6753 0.0127306C53.757 0.0127306 53.9388 0.0127306 54.0548 0.0127306C53.1376 2.27267 52.1941 4.50211 51.2664 6.7824" fill="#1A1A1A"/>
<path d="M29.4835 9.04995H15.9183C14.7402 9.04995 13.9284 8.08902 14.337 7.19419L17.1175 0.544017C17.1834 0.387507 17.2965 0.253683 17.4422 0.159868C17.5878 0.0660523 17.7593 0.0165618 17.9345 0.0177967L33.5712 0L30.0317 8.72964C29.9822 8.82848 29.9041 8.91135 29.8068 8.96821C29.7095 9.02507 29.5972 9.05346 29.4835 9.04995Z" fill="#1D5388"/>
<path d="M57.2597 41.9982H43.734C42.5586 41.9982 41.7468 41.0398 42.1527 40.1425L44.8515 33.4923C44.9169 33.3356 45.03 33.2018 45.1758 33.1083C45.3217 33.0148 45.4934 32.9661 45.6685 32.9686H61.3395L57.8237 41.6779C57.7732 41.7792 57.6926 41.8638 57.5922 41.9208C57.4918 41.9778 57.376 42.0048 57.2597 41.9982Z" fill="#2A70B8"/>
<path d="M27.8894 13H11.7598L0.113281 41.52H16.2323L27.8894 13Z" fill="#262324"/>
</svg>
