<svg width="12" height="12" viewBox="0 0 12 12" fill="none" xmlns="http://www.w3.org/2000/svg">
<path d="M3.5 6C1.5 6 1.5 6.895 1.5 8V8.5C1.5 9.88 1.5 11 4 11H8C10 11 10.5 9.88 10.5 8.5V8C10.5 6.895 10.5 6 8.5 6C8 6 7.86 6.105 7.6 6.3L7.09 6.84C6.5 7.47 5.5 7.47 4.905 6.84L4.4 6.3C4.14 6.105 4 6 3.5 6Z" stroke="#929292" stroke-width="0.9" stroke-miterlimit="10" stroke-linecap="round" stroke-linejoin="round"/>
<path d="M9.5 6V3C9.5 1.895 9.5 1 7.5 1H4.5C2.5 1 2.5 1.895 2.5 3V6" stroke="#929292" stroke-width="0.9" stroke-miterlimit="10" stroke-linecap="round" stroke-linejoin="round"/>
<path d="M5.27539 4.61499H6.94039" stroke="#929292" stroke-width="0.9" stroke-linecap="round" stroke-linejoin="round"/>
<path d="M4.86035 3.11499H7.36035" stroke="#929292" stroke-width="0.9" stroke-linecap="round" stroke-linejoin="round"/>
</svg>
