<svg width="9" height="8" viewBox="0 0 9 8" fill="none" xmlns="http://www.w3.org/2000/svg">
<path d="M3.20736 4C1.87402 4 1.87402 4.59667 1.87402 5.33333V5.66667C1.87402 6.58667 1.87402 7.33333 3.54069 7.33333H6.20736C7.54069 7.33333 7.87402 6.58667 7.87402 5.66667V5.33333C7.87402 4.59667 7.87402 4 6.54069 4C6.20736 4 6.11402 4.07 5.94069 4.2L5.60069 4.56C5.20736 4.98 4.54069 4.98 4.1440px2 4.56L3.80736 4.2C3.63402 4.07 3.54069 4 3.20736 4Z" stroke="#676767" stroke-width="0.341458" stroke-miterlimit="10" stroke-linecap="round" stroke-linejoin="round"/>
<path d="M7.20671 3.99984V1.99984C7.20671 1.26317 7.20671 0.666504 5.87337 0.666504H3.87337C2.54004 0.666504 2.54004 1.26317 2.54004 1.99984V3.99984" stroke="#676767" stroke-width="0.341458" stroke-miterlimit="10" stroke-linecap="round" stroke-linejoin="round"/>
<path d="M4.39062 3.07666H5.50062" stroke="#676767" stroke-width="0.341458" stroke-linecap="round" stroke-linejoin="round"/>
<path d="M4.11328 2.07666H5.77995" stroke="#676767" stroke-width="0.341458" stroke-linecap="round" stroke-linejoin="round"/>
</svg>
