<svg width="141" height="45" viewBox="0 0 141 45" fill="none" xmlns="http://www.w3.org/2000/svg">
<g clip-path="url(#clip0_3683_1845)">
<path d="M50.2506 34.5725L47.8271 30.3734L47.8291 30.3714C47.6086 29.9987 47.4798 29.5655 47.4798 29.1011C47.4798 28.6328 47.6105 28.1977 47.8349 27.8231L47.4369 27.663L46.7344 28.4767L46.5373 28.1353C45.751 26.7713 43.7822 26.7713 42.9958 28.1353L39.2806 34.5705C38.4942 35.9344 39.4777 37.6379 41.0504 37.6379H41.4914L41.1616 38.7716L41.4406 38.8984C41.8699 38.1452 42.6797 37.6379 43.6085 37.6379C43.6222 37.6379 43.6339 37.6398 43.6475 37.6398V37.6379H48.4808C50.0535 37.6379 51.0369 35.9344 50.2506 34.5725Z" fill="#15CCA3"/>
<path d="M33.9749 0H15.875C13.4359 0 11.1841 1.30149 9.96461 3.41276L0.914654 19.0872C-0.304885 21.1985 -0.304885 23.7995 0.914654 25.9128L9.96461 41.5872C11.1841 43.6985 13.4359 45 15.875 45H33.9749C36.414 45 38.6657 43.6985 39.8853 41.5872L48.9352 25.9128C50.1547 23.8015 50.1547 21.2005 48.9352 19.0872L39.8853 3.41276C38.6657 1.30149 36.412 0 33.9749 0Z" fill="#15CCA3"/>
<path opacity="0.7" d="M34.6219 21.6779H16.3197L15.3926 22.0716V26.8484L24.0841 30.4028C24.1032 30.4108 24.1238 30.4155 24.1428 30.4235C24.5524 30.5917 25.0001 30.687 25.47 30.687C25.9399 30.687 26.3876 30.5933 26.7971 30.4235C26.8162 30.4171 26.8368 30.4123 26.8559 30.4044L35.5506 26.8484V22.0716L34.6219 21.6779Z" fill="white"/>
<path d="M40.5521 19.6967L26.8648 13.877C26.86 13.8754 26.8552 13.8738 26.8505 13.8722C26.4266 13.6881 25.9599 13.5849 25.4678 13.5849C24.9756 13.5849 24.5089 13.6881 24.0851 13.8722C24.0803 13.8738 24.0755 13.8754 24.0708 13.877L10.385 19.6967C10.1167 19.811 10.1199 20.1904 10.3897 20.3L24.0819 25.8991C24.1009 25.907 24.1216 25.9118 24.1406 25.9197C24.5502 26.088 24.9979 26.1832 25.4678 26.1832C25.9377 26.1832 26.3853 26.0896 26.7949 25.9197C26.814 25.9134 26.8346 25.9086 26.8537 25.9007L40.5474 20.3016C40.8173 20.1904 40.8204 19.8094 40.5521 19.6967Z" fill="white"/>
</g>
<path d="M61.8873 7.8097C62.7629 7.8097 63.4395 7.12316 63.4395 6.29732C63.4395 5.47148 62.7629 4.78494 61.8873 4.78494C61.0117 4.78494 60.3351 5.47148 60.3351 6.29732C60.3351 7.12316 61.0117 7.8097 61.8873 7.8097ZM60.4346 19.8491H63.34V9.18279H60.4346V19.8491ZM65.3598 19.8491H68.2652V5.49138H65.3598V19.8491ZM75.0809 20.068C78.1255 20.068 79.5981 18.267 79.9264 16.6949L79.9563 16.5855H77.2897L77.2698 16.6452C77.0609 17.2422 76.3345 17.8989 75.1406 17.8989C73.658 17.8989 72.7327 16.9039 72.7028 15.2025H80.0458V14.307C80.0458 11.0832 78.0857 8.96389 74.9615 8.96389C71.8372 8.96389 69.8373 11.133 69.8373 14.5259V14.5358C69.8373 17.9486 71.8173 20.068 75.0809 20.068ZM75.0112 11.133C76.2151 11.133 77.0808 11.8991 77.2599 13.3717H72.7327C72.9217 11.929 73.8172 11.133 75.0112 11.133ZM84.7223 20.0182C86.1252 20.0182 87.2595 19.3516 87.8665 18.2571H87.9262V19.8491H90.8315V12.5359C90.8315 10.3867 89.0505 8.96389 86.2944 8.96389C83.4786 8.96389 81.7871 10.3768 81.6279 12.3468L81.6179 12.4662H84.2745L84.2944 12.3767C84.4337 11.6902 85.0904 11.1827 86.175 11.1827C87.3093 11.1827 87.9262 11.7698 87.9262 12.715V13.3717L85.2894 13.5309C82.6428 13.7 81.1403 14.8343 81.1403 16.7745V16.7944C81.1403 18.675 82.5831 20.0182 84.7223 20.0182ZM84.0158 16.6452V16.6253C84.0158 15.8691 84.6029 15.3915 85.7272 15.3219L87.9262 15.1826V15.9487C87.9262 17.0631 86.971 17.8989 85.6675 17.8989C84.6626 17.8989 84.0158 17.4312 84.0158 16.6452ZM92.712 19.8491H95.6174V13.8791C95.6174 12.3269 96.4532 11.4713 97.886 11.4713C98.3039 11.4713 98.7019 11.531 98.9407 11.6305V9.07334C98.7218 9.01364 98.4233 8.96389 98.1049 8.96389C96.8611 8.96389 95.9955 9.73003 95.6771 11.0434H95.6174V9.18279H92.712V19.8491ZM100.135 19.8491H103.04V13.7199C103.04 12.3269 103.866 11.3718 105.169 11.3718C106.473 11.3718 107.129 12.1678 107.129 13.5607V19.8491H110.035V12.9637C110.035 10.4663 108.702 8.96389 106.353 8.96389C104.741 8.96389 103.647 9.71013 103.1 10.934H103.04V9.18279H100.135V19.8491ZM113.388 7.8097C114.263 7.8097 114.94 7.12316 114.94 6.29732C114.94 5.47148 114.263 4.78494 113.388 4.78494C112.512 4.78494 111.836 5.47148 111.836 6.29732C111.836 7.12316 112.512 7.8097 113.388 7.8097ZM111.935 19.8491H114.841V9.18279H111.935V19.8491ZM116.791 19.8491H119.696V13.7199C119.696 12.3269 120.522 11.3718 121.825 11.3718C123.129 11.3718 123.786 12.1678 123.786 13.5607V19.8491H126.691V12.9637C126.691 10.4663 125.358 8.96389 123.009 8.96389C121.398 8.96389 120.303 9.71013 119.756 10.934H119.696V9.18279H116.791V19.8491ZM133.517 23.5504C136.72 23.5504 138.72 21.9286 138.72 19.5506V9.18279H135.815V11.0036H135.755C135.178 9.75988 134.014 8.96389 132.512 8.96389C129.815 8.96389 128.144 10.9837 128.144 14.3866V14.3965C128.144 17.7098 129.795 19.6998 132.462 19.6998C134.004 19.6998 135.198 18.9934 135.755 17.879H135.815V19.5108C135.815 20.7047 135.019 21.4808 133.517 21.4808C132.303 21.4808 131.527 21.0231 131.298 20.4958L131.268 20.4262H128.442L128.452 20.5157C128.731 22.2271 130.581 23.5504 133.517 23.5504ZM133.467 17.5705C132.014 17.5705 131.099 16.3865 131.099 14.4662V14.4562C131.099 12.5458 132.024 11.3718 133.467 11.3718C134.88 11.3718 135.825 12.5558 135.825 14.4562V14.4662C135.825 16.3766 134.89 17.5705 133.467 17.5705Z" fill="white"/>
<path d="M65.8673 38.3327C69.489 38.3327 71.6581 36.5815 71.6581 33.8254V33.8154C71.6581 31.5568 70.3049 30.333 67.3 29.736L65.7777 29.4275C64.126 29.0992 63.3897 28.5718 63.3897 27.6664V27.6564C63.3897 26.6316 64.3151 25.9252 65.8573 25.9152C67.3398 25.9152 68.3746 26.6018 68.5239 27.7261L68.5338 27.8455H71.3695L71.3596 27.6564C71.2203 25.1391 69.1806 23.4775 65.8573 23.4775C62.6733 23.4775 60.3849 25.2088 60.3849 27.8355V27.8455C60.3849 30.0046 61.8177 31.3578 64.6534 31.9249L66.1658 32.2234C67.9468 32.5916 68.6532 33.0791 68.6532 34.0542V34.0642C68.6532 35.1587 67.6085 35.885 65.9469 35.885C64.3051 35.885 63.1211 35.1885 62.932 34.0741L62.9121 33.9647H60.0764L60.0864 34.1239C60.2555 36.7705 62.4545 38.3327 65.8673 38.3327ZM78.1255 38.3028C80.9712 38.3028 82.8119 36.5317 82.9512 34.2035V34.1438H80.2448L80.2349 34.2333C80.0359 35.3079 79.3096 36.0243 78.1454 36.0243C76.7126 36.0243 75.8171 34.8403 75.8171 32.7508V32.7408C75.8171 30.7011 76.7126 29.4773 78.1355 29.4773C79.3394 29.4773 80.0458 30.2534 80.2249 31.2683L80.2448 31.3578H82.9413V31.2882C82.8318 28.9798 80.9911 27.1988 78.0957 27.1988C74.9018 27.1988 72.862 29.3181 72.862 32.7309V32.7408C72.862 36.1835 74.8719 38.3028 78.1255 38.3028ZM84.4238 38.0839H87.3292V31.9747C87.3292 30.5817 88.155 29.6066 89.4385 29.6066C90.7619 29.6066 91.4982 30.4922 91.4982 31.9846V38.0839H94.4035V31.3877C94.4035 28.8106 92.9707 27.1988 90.6624 27.1988C89.0604 27.1988 87.9361 27.935 87.3889 29.2584H87.3292V23.7262H84.4238V38.0839ZM101.169 38.3028C104.393 38.3028 106.453 36.2332 106.453 32.7508V32.7309C106.453 29.2783 104.353 27.1988 101.159 27.1988C97.9755 27.1988 95.8861 29.2982 95.8861 32.7309V32.7508C95.8861 36.2233 97.9258 38.3028 101.169 38.3028ZM101.179 36.0243C99.7466 36.0243 98.8412 34.8403 98.8412 32.7508V32.7309C98.8412 30.6713 99.7566 29.4773 101.159 29.4773C102.572 29.4773 103.498 30.6713 103.498 32.7309V32.7508C103.498 34.8303 102.592 36.0243 101.179 36.0243ZM112.851 38.3028C116.074 38.3028 118.134 36.2332 118.134 32.7508V32.7309C118.134 29.2783 116.035 27.1988 112.841 27.1988C109.657 27.1988 107.567 29.2982 107.567 32.7309V32.7508C107.567 36.2233 109.607 38.3028 112.851 38.3028ZM112.861 36.0243C111.428 36.0243 110.522 34.8403 110.522 32.7508V32.7309C110.522 30.6713 111.438 29.4773 112.841 29.4773C114.254 29.4773 115.179 30.6713 115.179 32.7309V32.7508C115.179 34.8303 114.273 36.0243 112.861 36.0243ZM119.706 38.0839H122.611V23.7262H119.706V38.0839Z" fill="white"/>
<defs>
<clipPath id="clip0_3683_1845">
<rect width="50.526" height="45" fill="white"/>
</clipPath>
</defs>
</svg>
