<svg width="165" height="53" viewBox="0 0 117 29" fill="none" xmlns="http://www.w3.org/2000/svg">
<path d="M9.18079 5.32294L10.936 0.337723C11.0078 0.133807 11.1822 0 11.3763 0H19.7963C20.1351 0 20.3644 0.390478 20.2331 0.743766L18.3805 5.72898C18.3065 5.92791 18.1343 6.0573 17.9436 6.0573H9.62108C9.28611 6.0573 9.05686 5.67493 9.18079 5.32294Z" fill="#06558B"/>
<path d="M25.9101 28.2656L27.6653 23.2804C27.7371 23.0765 27.9115 22.9427 28.1056 22.9427H36.5256C36.8644 22.9427 37.0938 23.3332 36.9625 23.6865L35.1098 28.6717C35.0359 28.8706 34.8637 29 34.6729 29H26.3504C26.0154 29 25.7862 28.6176 25.9101 28.2656Z" fill="#0372BD"/>
<path d="M16.6763 9.43438H8.10406C7.91109 9.43438 7.73739 9.56672 7.66488 9.769L1.03521 28.2625C0.908861 28.615 1.13816 29 1.47439 29H10.0019C10.1944 29 10.3679 28.8682 10.4406 28.6665L17.1151 10.173C17.2424 9.82041 17.0131 9.43438 16.6763 9.43438Z" fill="black"/>
<path d="M13.2564 28.2657L23.0683 0.391362C23.1401 0.187429 23.3145 0.0536044 23.5086 0.0536044H32.0907C32.4242 0.0536044 32.6533 0.432878 32.5322 0.784336L22.9257 28.6586C22.8548 28.8645 22.6795 29 22.4841 29H13.6967C13.3618 29 13.1325 28.6177 13.2564 28.2657Z" fill="black"/>
<path d="M41.7063 18L42.9663 11.7H44.4333L43.1733 18H41.7063ZM45.9644 18L46.9814 12.888H44.9654L45.2084 11.7H50.6984L50.4554 12.888H48.4484L47.4224 18H45.9644ZM49.8089 18L49.9979 17.055L54.7859 12.357L54.9119 12.888H50.9249L51.1679 11.7H56.4599L56.2709 12.645L51.4919 17.343L51.3659 16.812H55.5599L55.3169 18H49.8089ZM60.9068 14.238H63.9398L63.7148 15.372H60.6818L60.9068 14.238ZM60.4928 16.83H63.9308L63.6878 18H58.8098L60.0698 11.7H64.8308L64.5878 12.87H61.2848L60.4928 16.83ZM64.8479 18L66.1079 11.7H68.7449C69.3929 11.7 69.9479 11.808 70.4099 12.024C70.8779 12.234 71.2349 12.537 71.4809 12.933C71.7269 13.323 71.8499 13.788 71.8499 14.328C71.8499 14.886 71.7539 15.39 71.5619 15.84C71.3759 16.29 71.1089 16.677 70.7609 17.001C70.4129 17.319 69.9989 17.565 69.5189 17.739C69.0389 17.913 68.5079 18 67.9259 18H64.8479ZM66.5489 16.803H67.9709C68.4809 16.803 68.9129 16.698 69.2669 16.488C69.6269 16.278 69.8999 15.993 70.0859 15.633C70.2779 15.273 70.3739 14.865 70.3739 14.409C70.3739 14.097 70.3079 13.83 70.1759 13.608C70.0439 13.38 69.8429 13.206 69.5729 13.086C69.3089 12.96 68.9789 12.897 68.5829 12.897H67.3319L66.5489 16.803ZM75.2535 18.108C74.6415 18.108 74.1315 17.988 73.7235 17.748C73.3155 17.508 73.0275 17.175 72.8595 16.749C72.6975 16.317 72.6735 15.81 72.7875 15.228L73.4895 11.7H74.9565L74.2545 15.201C74.2005 15.483 74.1855 15.729 74.2095 15.939C74.2335 16.149 74.2935 16.323 74.3895 16.461C74.4915 16.599 74.6295 16.701 74.8035 16.767C74.9775 16.833 75.1815 16.866 75.4155 16.866C75.7095 16.866 75.9645 16.809 76.1805 16.695C76.3965 16.581 76.5765 16.401 76.7205 16.155C76.8645 15.909 76.9755 15.591 77.0535 15.201L77.7555 11.7H79.1865L78.4755 15.291C78.2895 16.221 77.9265 16.923 77.3865 17.397C76.8465 17.871 76.1355 18.108 75.2535 18.108ZM82.6882 18.108C82.0462 18.108 81.4912 17.994 81.0232 17.766C80.5612 17.532 80.2042 17.211 79.9522 16.803C79.7002 16.389 79.5742 15.912 79.5742 15.372C79.5742 14.838 79.6672 14.34 79.8532 13.878C80.0452 13.416 80.3122 13.017 80.6542 12.681C81.0022 12.339 81.4132 12.072 81.8872 11.88C82.3672 11.688 82.9012 11.592 83.4892 11.592C84.0532 11.592 84.5512 11.688 84.9832 11.88C85.4152 12.072 85.7422 12.348 85.9642 12.708L84.9112 13.572C84.7492 13.332 84.5422 13.149 84.2902 13.023C84.0382 12.897 83.7382 12.834 83.3902 12.834C83.0362 12.834 82.7152 12.897 82.4272 13.023C82.1392 13.143 81.8902 13.317 81.6802 13.545C81.4762 13.767 81.3202 14.028 81.2122 14.328C81.1042 14.628 81.0502 14.946 81.0502 15.282C81.0502 15.6 81.1192 15.879 81.2572 16.119C81.3952 16.353 81.5962 16.536 81.8602 16.668C82.1242 16.8 82.4422 16.866 82.8142 16.866C83.1382 16.866 83.4412 16.809 83.7232 16.695C84.0052 16.575 84.2602 16.389 84.4882 16.137L85.3522 17.019C85.0222 17.403 84.6292 17.682 84.1732 17.856C83.7232 18.024 83.2282 18.108 82.6882 18.108ZM85.0346 18L89.1026 11.7H90.5516L92.0996 18H90.6416L89.4176 12.42H89.9936L86.5916 18H85.0346ZM86.7176 16.65L87.3116 15.543H90.5606L90.7316 16.65H86.7176ZM93.7418 18L94.7588 12.888H92.7428L92.9858 11.7H98.4758L98.2328 12.888H96.2258L95.1998 18H93.7418ZM98.0003 18L99.2603 11.7H100.727L99.4673 18H98.0003ZM104.22 18.108C103.584 18.108 103.035 17.994 102.573 17.766C102.117 17.532 101.766 17.211 101.52 16.803C101.274 16.389 101.151 15.912 101.151 15.372C101.151 14.832 101.244 14.334 101.43 13.878C101.616 13.416 101.88 13.017 102.222 12.681C102.57 12.339 102.981 12.072 103.455 11.88C103.935 11.688 104.466 11.592 105.048 11.592C105.684 11.592 106.23 11.709 106.686 11.943C107.148 12.171 107.502 12.492 107.748 12.906C107.994 13.314 108.117 13.788 108.117 14.328C108.117 14.868 108.024 15.369 107.838 15.831C107.652 16.287 107.385 16.686 107.037 17.028C106.695 17.364 106.284 17.628 105.804 17.82C105.33 18.012 104.802 18.108 104.22 18.108ZM104.346 16.866C104.7 16.866 105.018 16.803 105.3 16.677C105.588 16.545 105.831 16.365 106.029 16.137C106.227 15.909 106.377 15.648 106.479 15.354C106.587 15.054 106.641 14.739 106.641 14.409C106.641 14.097 106.575 13.824 106.443 13.59C106.311 13.35 106.116 13.164 105.858 13.032C105.606 12.9 105.294 12.834 104.922 12.834C104.568 12.834 104.25 12.9 103.968 13.032C103.686 13.158 103.443 13.335 103.239 13.563C103.041 13.791 102.888 14.055 102.78 14.355C102.678 14.649 102.627 14.961 102.627 15.291C102.627 15.603 102.693 15.879 102.825 16.119C102.963 16.353 103.158 16.536 103.41 16.668C103.668 16.8 103.98 16.866 104.346 16.866ZM108.547 18L109.807 11.7H111.013L113.722 16.263L113.245 16.236L114.145 11.7H115.585L114.325 18H113.128L110.41 13.437L110.896 13.464L109.987 18H108.547Z" fill="white"/>
</svg>
