<svg width="304" height="39" viewBox="0 0 304 39" fill="none" xmlns="http://www.w3.org/2000/svg">
<path d="M53.5176 10.7594C49.0876 20.0159 44.6518 29.27 40.2102 38.5217C40.1619 38.6736 40.0472 38.8056 39.8878 38.8926C39.7285 38.9797 39.5357 39.0157 39.3461 38.9938C34.8123 38.9773 30.2786 38.9938 25.742 38.9938C23.7257 38.9938 22.8616 37.9434 23.6019 36.3972C28.704 25.7496 33.809 15.1044 38.9169 4.46149C39.5707 3.09946 40.2304 1.73743 40.8727 0.37068C40.985 0.134626 41.1031 0.00951308 41.4488 0.0118736C47.0636 0.0213158 52.6775 0.0213158 58.2904 0.0118736C58.3797 0.0118736 58.5785 0.0118736 58.7052 0.0118736C57.7028 2.11039 56.6716 4.18059 55.6577 6.29799" fill="white"/>
<path d="M31.8514 8.40352H17.0261C15.7385 8.40352 14.8514 7.51123 15.2978 6.68032L18.3366 0.505159C18.4087 0.359828 18.5323 0.235563 18.6915 0.148449C18.8507 0.0613343 19.0381 0.0153788 19.2296 0.0165255L36.3189 0L32.4505 8.10609C32.3965 8.19787 32.3112 8.27483 32.2048 8.32762C32.0985 8.38042 31.9757 8.40679 31.8514 8.40352Z" fill="url(#paint0_linear_6640_405)"/>
<path d="M62.2078 38.9985H47.4257C46.141 38.9985 45.2539 38.1086 45.6974 37.2753L48.647 31.1001C48.7185 30.9547 48.8421 30.8304 49.0014 30.7436C49.1608 30.6568 49.3485 30.6115 49.5399 30.6139H66.6667L62.8242 38.7011C62.7691 38.7951 62.681 38.8736 62.5712 38.9266C62.4615 38.9796 62.335 39.0046 62.2078 38.9985Z" fill="url(#paint1_linear_6640_405)"/>
<path d="M30.3565 12.5155H12.7285L0 38.9984H17.6165L30.3565 12.5155Z" fill="white"/>
<path d="M157.046 32.0723L156.446 35.5H145.416L146.001 32.0723H157.046ZM150.528 14.1719L146.822 35.5H142.53L146.221 14.1719H150.528ZM157.208 22.8584L156.622 26.1982H147.027L147.613 22.8584H157.208ZM160.123 14.1719L159.522 17.6143H148.506L149.122 14.1719H160.123ZM165.513 35.5H160.767L161.382 32.0723L165.645 32.1016C166.973 32.1016 168.091 31.7891 169 31.1641C169.908 30.5293 170.621 29.6992 171.138 28.6738C171.666 27.6387 172.022 26.5205 172.208 25.3193L172.339 24.2793C172.427 23.5371 172.457 22.7852 172.427 22.0234C172.398 21.252 172.256 20.5391 172.002 19.8848C171.758 19.2305 171.368 18.6982 170.831 18.2881C170.293 17.8779 169.566 17.6582 168.648 17.6289L163.785 17.6143L164.385 14.1719L168.78 14.1865C170.206 14.2158 171.446 14.5088 172.5 15.0654C173.555 15.6123 174.419 16.3545 175.093 17.292C175.767 18.2295 176.236 19.3037 176.5 20.5146C176.763 21.7158 176.817 22.9805 176.661 24.3086L176.543 25.3486C176.348 26.7744 175.943 28.1074 175.328 29.3477C174.722 30.5879 173.936 31.6719 172.969 32.5996C172.012 33.5176 170.904 34.2354 169.644 34.7529C168.384 35.2607 167.007 35.5098 165.513 35.5ZM166.905 14.1719L163.199 35.5H158.907L162.598 14.1719H166.905ZM192.964 14.1719H197.242L194.839 28.249C194.615 29.8311 194.092 31.1934 193.272 32.3359C192.461 33.4688 191.417 34.3379 190.137 34.9434C188.868 35.5391 187.437 35.8271 185.845 35.8076C184.361 35.7783 183.067 35.4561 181.963 34.8408C180.87 34.2158 180.049 33.3467 179.502 32.2334C178.956 31.1104 178.775 29.7871 178.96 28.2637L181.363 14.1719H185.64L183.252 28.2783C183.165 29.0107 183.189 29.6846 183.326 30.2998C183.472 30.9053 183.765 31.3984 184.205 31.7793C184.654 32.1504 185.289 32.3457 186.109 32.3652C186.978 32.3945 187.72 32.2383 188.335 31.8965C188.951 31.5547 189.444 31.0713 189.815 30.4463C190.186 29.8115 190.435 29.084 190.562 28.2637L192.964 14.1719ZM210.162 28.4395L214.351 28.3809C214.166 29.9531 213.633 31.3008 212.754 32.4238C211.885 33.5371 210.792 34.3867 209.473 34.9727C208.155 35.5488 206.724 35.8223 205.181 35.793C203.755 35.7637 202.554 35.4609 201.578 34.8848C200.601 34.2988 199.834 33.5176 199.278 32.541C198.721 31.5645 198.355 30.4756 198.179 29.2744C198.003 28.0732 197.994 26.8428 198.15 25.583L198.355 24.1035C198.55 22.7754 198.907 21.4912 199.424 20.251C199.952 19.0107 200.64 17.9072 201.49 16.9404C202.339 15.9736 203.345 15.2119 204.507 14.6553C205.669 14.0986 206.988 13.835 208.462 13.8643C210.005 13.8936 211.309 14.2256 212.374 14.8604C213.448 15.4854 214.273 16.3594 214.849 17.4824C215.435 18.5957 215.762 19.8994 215.831 21.3936L211.568 21.3789C211.578 20.5879 211.48 19.8945 211.275 19.2988C211.08 18.6934 210.738 18.2246 210.25 17.8926C209.761 17.5508 209.087 17.3652 208.228 17.3359C207.291 17.3066 206.495 17.4922 205.84 17.8926C205.186 18.293 204.644 18.8301 204.214 19.5039C203.794 20.1777 203.462 20.915 203.218 21.7158C202.984 22.5166 202.808 23.3027 202.691 24.0742L202.486 25.5977C202.408 26.2324 202.354 26.9355 202.325 27.707C202.295 28.4688 202.359 29.1963 202.515 29.8896C202.671 30.583 202.974 31.1592 203.423 31.6182C203.873 32.0674 204.542 32.3066 205.43 32.3359C206.309 32.3652 207.066 32.2285 207.701 31.9258C208.345 31.623 208.868 31.1738 209.268 30.5781C209.678 29.9824 209.976 29.2695 210.162 28.4395ZM227.535 18.0391L218.951 35.5H214.234L225.63 14.1719H228.648L227.535 18.0391ZM229.234 35.5L226.626 17.585L226.788 14.1719H229.615L233.643 35.5H229.234ZM230.318 27.5605L229.717 31.0029H218.746L219.346 27.5605H230.318ZM246.797 14.1719L243.106 35.5H238.814L242.52 14.1719H246.797ZM253.155 14.1719L252.554 17.6143H235.665L236.265 14.1719H253.155ZM260.127 14.1719L256.436 35.5H252.144L255.85 14.1719H260.127ZM279.317 24.2646L279.2 25.29C279.004 26.6572 278.638 27.9756 278.101 29.2451C277.564 30.5146 276.861 31.6475 275.992 32.6436C275.123 33.6299 274.087 34.4111 272.886 34.9873C271.695 35.5537 270.342 35.8223 268.829 35.793C267.383 35.7637 266.158 35.4512 265.152 34.8555C264.156 34.25 263.365 33.4492 262.779 32.4531C262.203 31.457 261.817 30.3486 261.622 29.1279C261.426 27.8975 261.407 26.6377 261.563 25.3486L261.68 24.3379C261.875 22.9707 262.242 21.6572 262.779 20.3975C263.326 19.1377 264.034 18.0146 264.903 17.0283C265.782 16.0322 266.817 15.251 268.008 14.6846C269.209 14.1182 270.557 13.8496 272.051 13.8789C273.497 13.8984 274.717 14.2109 275.713 14.8164C276.719 15.4121 277.51 16.208 278.086 17.2041C278.672 18.1904 279.063 19.2988 279.258 20.5293C279.454 21.75 279.473 22.9951 279.317 24.2646ZM274.849 25.3486L274.996 24.2939C275.074 23.6299 275.113 22.9121 275.113 22.1406C275.123 21.3594 275.035 20.6123 274.849 19.8994C274.664 19.1768 274.332 18.5859 273.853 18.127C273.384 17.6582 272.706 17.4043 271.817 17.3652C270.86 17.3359 270.04 17.5264 269.356 17.9365C268.682 18.3467 268.116 18.9033 267.657 19.6064C267.208 20.2998 266.851 21.0615 266.587 21.8916C266.333 22.7119 266.148 23.5176 266.031 24.3086L265.899 25.3633C265.811 26.0176 265.762 26.7402 265.752 27.5312C265.752 28.3125 265.845 29.0645 266.031 29.7871C266.216 30.5 266.548 31.0908 267.027 31.5596C267.505 32.0283 268.189 32.2822 269.078 32.3213C270.025 32.3506 270.835 32.1553 271.509 31.7354C272.193 31.3154 272.764 30.7588 273.223 30.0654C273.682 29.3623 274.043 28.6006 274.307 27.7803C274.571 26.9502 274.751 26.1396 274.849 25.3486ZM301.026 14.1719L297.32 35.5H293.16L287.256 21.042L284.751 35.5H280.459L284.151 14.1719H288.326L294.244 28.6445L296.749 14.1719H301.026Z" fill="white"/>
<path d="M82.2742 20.6193H86.8189L83.6558 34.9754H79.1111L82.2742 20.6193ZM83.4104 17.9927C83.1695 17.801 82.9775 17.5646 82.8472 17.2997C82.717 17.0348 82.6518 16.7476 82.6559 16.4577C82.6467 16.1246 82.7174 15.7936 82.8633 15.4876C83.0093 15.1815 83.2269 14.9076 83.5013 14.6848C83.8041 14.4404 84.1578 14.2529 84.5417 14.1331C84.9255 14.0133 85.3319 13.9637 85.7372 13.9871C86.452 13.956 87.1533 14.17 87.7006 14.5863C87.9393 14.7669 88.1309 14.9931 88.2613 15.2486C88.3917 15.504 88.4579 15.7824 88.455 16.0637C88.4703 16.4104 88.4018 16.756 88.2543 17.0763C88.1067 17.3967 87.8836 17.6842 87.6006 17.9188C86.9907 18.405 86.1954 18.6581 85.3828 18.6247C85.0241 18.6418 84.6652 18.5948 84.3267 18.4864C83.9883 18.3779 83.6768 18.2101 83.4104 17.9927Z" fill="url(#paint2_linear_6640_405)"/>
<path d="M97.7805 17.7629H90.2817L91.1907 13.7655H111.642L110.733 17.7629H103.243L99.4166 35H93.9629L97.7805 17.7629Z" fill="url(#paint3_linear_6640_405)"/>
<path d="M133.257 16.9502L117.45 30.978H130.603L129.694 34.9754H109.161L109.861 31.7988L125.731 17.7629H113.324L114.233 13.7655H133.966L133.257 16.9502Z" fill="url(#paint4_linear_6640_405)"/>
<defs>
<linearGradient id="paint0_linear_6640_405" x1="25.7499" y1="0" x2="25.7499" y2="8.40379" gradientUnits="userSpaceOnUse">
<stop stop-color="#2A70B8"/>
<stop offset="1" stop-color="#1D5388"/>
</linearGradient>
<linearGradient id="paint1_linear_6640_405" x1="56.1242" y1="30.6138" x2="56.1242" y2="38.9994" gradientUnits="userSpaceOnUse">
<stop stop-color="#2A70B8"/>
<stop offset="1" stop-color="#2A70B8"/>
</linearGradient>
<linearGradient id="paint2_linear_6640_405" x1="79.1111" y1="24.4771" x2="88.4186" y2="24.4771" gradientUnits="userSpaceOnUse">
<stop stop-color="#2A70B8"/>
<stop offset="1" stop-color="#1D5388"/>
</linearGradient>
<linearGradient id="paint3_linear_6640_405" x1="90.2636" y1="24.3704" x2="111.642" y2="24.3704" gradientUnits="userSpaceOnUse">
<stop stop-color="#2A70B8"/>
<stop offset="1" stop-color="#1D5388"/>
</linearGradient>
<linearGradient id="paint4_linear_6640_405" x1="109.161" y1="24.3705" x2="133.957" y2="24.3705" gradientUnits="userSpaceOnUse">
<stop stop-color="#2A70B8"/>
<stop offset="1" stop-color="#1D5388"/>
</linearGradient>
</defs>
</svg>
