<svg width="165" height="53" viewBox="0 0 129 60" fill="none" xmlns="http://www.w3.org/2000/svg">
<rect y="5" width="50" height="50" rx="10" fill="white"/>
<path d="M15.1808 20.8229L16.936 15.8377C17.0078 15.6338 17.1822 15.5 17.3763 15.5H25.7963C26.1351 15.5 26.3644 15.8905 26.2331 16.2438L24.3805 21.229C24.3065 21.4279 24.1343 21.5573 23.9436 21.5573H15.6211C15.2861 21.5573 15.0569 21.1749 15.1808 20.8229Z" fill="#06558B"/>
<path d="M31.9101 43.7656L33.6653 38.7804C33.7371 38.5765 33.9115 38.4427 34.1056 38.4427H42.5256C42.8644 38.4427 43.0938 38.8332 42.9625 39.1865L41.1098 44.1717C41.0359 44.3706 40.8637 44.5 40.6729 44.5H32.3504C32.0154 44.5 31.7862 44.1176 31.9101 43.7656Z" fill="#0372BD"/>
<path d="M22.6763 24.9344H14.1041C13.9111 24.9344 13.7374 25.0667 13.6649 25.269L7.03521 43.7625C6.90886 44.115 7.13816 44.5 7.47439 44.5H16.0019C16.1944 44.5 16.3679 44.3682 16.4406 44.1665L23.1151 25.673C23.2424 25.3204 23.0131 24.9344 22.6763 24.9344Z" fill="black"/>
<path d="M19.2564 43.7657L29.0683 15.8914C29.1401 15.6874 29.3145 15.5536 29.5086 15.5536H38.0907C38.4242 15.5536 38.6533 15.9329 38.5322 16.2843L28.9257 44.1586C28.8548 44.3645 28.6795 44.5 28.4841 44.5H19.6967C19.3618 44.5 19.1325 44.1177 19.2564 43.7657Z" fill="black"/>
<path d="M54.7063 33.5L55.9663 27.2H57.4333L56.1733 33.5H54.7063ZM58.9644 33.5L59.9814 28.388H57.9654L58.2084 27.2H63.6984L63.4554 28.388H61.4484L60.4224 33.5H58.9644ZM62.8089 33.5L62.9979 32.555L67.7859 27.857L67.9119 28.388H63.9249L64.1679 27.2H69.4599L69.2709 28.145L64.4919 32.843L64.3659 32.312H68.5599L68.3169 33.5H62.8089ZM73.9068 29.738H76.9398L76.7148 30.872H73.6818L73.9068 29.738ZM73.4928 32.33H76.9308L76.6878 33.5H71.8098L73.0698 27.2H77.8308L77.5878 28.37H74.2848L73.4928 32.33ZM77.8479 33.5L79.1079 27.2H81.7449C82.3929 27.2 82.9479 27.308 83.4099 27.524C83.8779 27.734 84.2349 28.037 84.4809 28.433C84.7269 28.823 84.8499 29.288 84.8499 29.828C84.8499 30.386 84.7539 30.89 84.5619 31.34C84.3759 31.79 84.1089 32.177 83.7609 32.501C83.4129 32.819 82.9989 33.065 82.5189 33.239C82.0389 33.413 81.5079 33.5 80.9259 33.5H77.8479ZM79.5489 32.303H80.9709C81.4809 32.303 81.9129 32.198 82.2669 31.988C82.6269 31.778 82.8999 31.493 83.0859 31.133C83.2779 30.773 83.3739 30.365 83.3739 29.909C83.3739 29.597 83.3079 29.33 83.1759 29.108C83.0439 28.88 82.8429 28.706 82.5729 28.586C82.3089 28.46 81.9789 28.397 81.5829 28.397H80.3319L79.5489 32.303ZM88.2535 33.608C87.6415 33.608 87.1315 33.488 86.7235 33.248C86.3155 33.008 86.0275 32.675 85.8595 32.249C85.6975 31.817 85.6735 31.31 85.7875 30.728L86.4895 27.2H87.9565L87.2545 30.701C87.2005 30.983 87.1855 31.229 87.2095 31.439C87.2335 31.649 87.2935 31.823 87.3895 31.961C87.4915 32.099 87.6295 32.201 87.8035 32.267C87.9775 32.333 88.1815 32.366 88.4155 32.366C88.7095 32.366 88.9645 32.309 89.1805 32.195C89.3965 32.081 89.5765 31.901 89.7205 31.655C89.8645 31.409 89.9755 31.091 90.0535 30.701L90.7555 27.2H92.1865L91.4755 30.791C91.2895 31.721 90.9265 32.423 90.3865 32.897C89.8465 33.371 89.1355 33.608 88.2535 33.608ZM95.6882 33.608C95.0462 33.608 94.4912 33.494 94.0232 33.266C93.5612 33.032 93.2042 32.711 92.9522 32.303C92.7002 31.889 92.5742 31.412 92.5742 30.872C92.5742 30.338 92.6672 29.84 92.8532 29.378C93.0452 28.916 93.3122 28.517 93.6542 28.181C94.0022 27.839 94.4132 27.572 94.8872 27.38C95.3672 27.188 95.9012 27.092 96.4892 27.092C97.0532 27.092 97.5512 27.188 97.9832 27.38C98.4152 27.572 98.7422 27.848 98.9642 28.208L97.9112 29.072C97.7492 28.832 97.5422 28.649 97.2902 28.523C97.0382 28.397 96.7382 28.334 96.3902 28.334C96.0362 28.334 95.7152 28.397 95.4272 28.523C95.1392 28.643 94.8902 28.817 94.6802 29.045C94.4762 29.267 94.3202 29.528 94.2122 29.828C94.1042 30.128 94.0502 30.446 94.0502 30.782C94.0502 31.1 94.1192 31.379 94.2572 31.619C94.3952 31.853 94.5962 32.036 94.8602 32.168C95.1242 32.3 95.4422 32.366 95.8142 32.366C96.1382 32.366 96.4412 32.309 96.7232 32.195C97.0052 32.075 97.2602 31.889 97.4882 31.637L98.3522 32.519C98.0222 32.903 97.6292 33.182 97.1732 33.356C96.7232 33.524 96.2282 33.608 95.6882 33.608ZM98.0346 33.5L102.103 27.2H103.552L105.1 33.5H103.642L102.418 27.92H102.994L99.5916 33.5H98.0346ZM99.7176 32.15L100.312 31.043H103.561L103.732 32.15H99.7176ZM106.742 33.5L107.759 28.388H105.743L105.986 27.2H111.476L111.233 28.388H109.226L108.2 33.5H106.742ZM111 33.5L112.26 27.2H113.727L112.467 33.5H111ZM117.22 33.608C116.584 33.608 116.035 33.494 115.573 33.266C115.117 33.032 114.766 32.711 114.52 32.303C114.274 31.889 114.151 31.412 114.151 30.872C114.151 30.332 114.244 29.834 114.43 29.378C114.616 28.916 114.88 28.517 115.222 28.181C115.57 27.839 115.981 27.572 116.455 27.38C116.935 27.188 117.466 27.092 118.048 27.092C118.684 27.092 119.23 27.209 119.686 27.443C120.148 27.671 120.502 27.992 120.748 28.406C120.994 28.814 121.117 29.288 121.117 29.828C121.117 30.368 121.024 30.869 120.838 31.331C120.652 31.787 120.385 32.186 120.037 32.528C119.695 32.864 119.284 33.128 118.804 33.32C118.33 33.512 117.802 33.608 117.22 33.608ZM117.346 32.366C117.7 32.366 118.018 32.303 118.3 32.177C118.588 32.045 118.831 31.865 119.029 31.637C119.227 31.409 119.377 31.148 119.479 30.854C119.587 30.554 119.641 30.239 119.641 29.909C119.641 29.597 119.575 29.324 119.443 29.09C119.311 28.85 119.116 28.664 118.858 28.532C118.606 28.4 118.294 28.334 117.922 28.334C117.568 28.334 117.25 28.4 116.968 28.532C116.686 28.658 116.443 28.835 116.239 29.063C116.041 29.291 115.888 29.555 115.78 29.855C115.678 30.149 115.627 30.461 115.627 30.791C115.627 31.103 115.693 31.379 115.825 31.619C115.963 31.853 116.158 32.036 116.41 32.168C116.668 32.3 116.98 32.366 117.346 32.366ZM121.547 33.5L122.807 27.2H124.013L126.722 31.763L126.245 31.736L127.145 27.2H128.585L127.325 33.5H126.128L123.41 28.937L123.896 28.964L122.987 33.5H121.547Z" fill="white"/>
</svg>
