<svg width="154" height="37" viewBox="0 0 154 37" fill="none" xmlns="http://www.w3.org/2000/svg">
<path d="M18.5151 37C8.28909 37 0 28.7177 0 18.5C0 8.28231 8.28909 0 18.5151 0C28.7412 0 37.0303 8.28231 37.0303 18.5C37.0303 28.7177 28.7412 37 18.5151 37Z" fill="url(#paint0_linear_2785_1265)"/>
<path d="M18.3545 18.515C18.3579 18.515 18.3602 18.515 18.3637 18.515C18.4673 18.515 18.5708 18.5127 18.6732 18.5069C18.6732 18.5 18.6732 18.492 18.6744 18.485C18.5662 18.4931 18.4604 18.5023 18.3545 18.515Z" fill="white"/>
<path d="M18.5244 18.3654C18.5164 18.4552 18.5095 18.5449 18.5049 18.6358C18.5095 18.6358 18.5129 18.6358 18.5175 18.6347C18.5221 18.5461 18.5244 18.4563 18.5244 18.3654Z" fill="white"/>
<path d="M18.5059 18.6254C18.5139 18.5426 18.5197 18.4586 18.5243 18.3746C18.5197 18.3746 18.5162 18.3746 18.5116 18.3757C18.5082 18.4586 18.5059 18.5426 18.5059 18.6254Z" fill="white"/>
<path d="M18.5099 18.4907C18.5099 18.4975 18.5099 18.5042 18.5088 18.512C18.5133 18.512 18.5166 18.512 18.5211 18.5109C18.5211 18.5042 18.5211 18.4963 18.5222 18.4896C18.5177 18.4896 18.5133 18.4896 18.5099 18.4907Z" fill="white"/>
<path d="M18.211 7.10986C15.8341 7.10986 13.7958 8.56197 12.9367 10.6262C12.6914 11.2142 12.5417 11.8528 12.5083 12.5213C12.5037 12.6191 12.5014 12.7169 12.5014 12.8159C12.5014 13.3763 12.5832 13.9182 12.7329 14.4291C12.7548 14.5027 12.7778 14.5752 12.802 14.6466C12.8089 14.6661 12.8158 14.6857 12.8216 14.7041C12.8435 14.7651 12.8653 14.8272 12.8895 14.887C12.8941 14.8986 12.8976 14.9089 12.9022 14.9204C12.9298 14.9906 12.9598 15.0596 12.9897 15.1275C12.9978 15.1448 13.0058 15.162 13.0139 15.1793C13.0392 15.2345 13.0657 15.2898 13.0922 15.345C13.1003 15.36 13.1072 15.3761 13.1152 15.391C13.1486 15.4578 13.1843 15.5233 13.22 15.5878C13.2281 15.6016 13.2361 15.6154 13.2442 15.6292C13.2741 15.6821 13.3052 15.7351 13.3375 15.788C13.3478 15.8041 13.3571 15.8214 13.3674 15.8375C13.4066 15.9008 13.4469 15.9629 13.4895 16.0239C13.4952 16.0319 13.501 16.04 13.5068 16.048C13.5436 16.1021 13.5828 16.155 13.6219 16.208C13.6334 16.2241 13.6461 16.2402 13.6588 16.2563C13.7014 16.3127 13.7451 16.3679 13.7901 16.4231C13.7924 16.4266 13.7947 16.4301 13.7981 16.4324C13.8373 16.4807 13.8776 16.5279 13.9179 16.5739L13.9156 16.5704C13.9202 16.575 13.9236 16.5796 13.9282 16.5842C13.9259 16.5819 13.9225 16.5785 13.9202 16.5762C13.9282 16.5854 13.9352 16.5934 13.9432 16.6015C13.9559 16.6165 13.9697 16.6314 13.9835 16.6452C14.0112 16.6763 14.0388 16.7062 14.0676 16.7361C14.0641 16.7327 14.0618 16.7292 14.0584 16.7258C14.0756 16.7442 14.0929 16.7637 14.1113 16.7822C14.0964 16.7672 14.0814 16.7511 14.0676 16.7361C14.3244 17.0445 14.6203 17.5324 14.6825 17.8591C14.7044 17.9754 14.7171 18.095 14.7171 18.217C14.7171 18.6416 14.5777 19.0328 14.3417 19.3492C13.9962 19.8129 13.4423 20.1133 12.8193 20.1133C12.7076 20.1133 12.597 20.1029 12.4899 20.0845C11.5986 19.9292 10.9215 19.1525 10.9215 18.2181C10.9215 17.5968 11.2197 17.0456 11.6815 16.7005C11.3556 16.1539 11.0954 15.5625 10.9134 14.9388C10.7291 14.3071 10.6255 13.6409 10.614 12.9528C8.55496 13.8146 7.10742 15.8478 7.10742 18.2181C7.10742 20.8451 8.88431 23.0566 11.3015 23.7205C11.784 23.8528 12.293 23.9242 12.8181 23.9242C12.9413 23.9242 13.0634 23.9196 13.1843 23.9127C13.8891 23.8678 14.5582 23.6964 15.1708 23.419C15.9838 23.0508 16.6955 22.4985 17.2517 21.8151C17.5788 21.4135 17.8517 20.9659 18.0601 20.4849C18.0716 20.4596 18.082 20.4331 18.0935 20.4078C18.3089 19.89 18.4505 19.3343 18.5046 18.752C18.5046 18.6715 18.5069 18.5921 18.5104 18.5127C18.4125 18.5173 18.3135 18.5208 18.2133 18.5208C18.2098 18.5208 18.2075 18.5208 18.2041 18.5208C18.3054 18.5081 18.4079 18.4989 18.5104 18.4932C18.515 18.4057 18.5208 18.3194 18.5288 18.2331C18.5288 18.2285 18.5288 18.2239 18.5288 18.2181C18.5288 17.6612 18.4482 17.1227 18.2996 16.613C18.2985 16.6096 18.2973 16.6073 18.2973 16.6038C18.135 16.0503 17.8897 15.5326 17.5776 15.0631C17.5362 15.001 17.4924 14.9388 17.4486 14.8778C17.4417 14.8675 17.4337 14.8571 17.4268 14.8468C17.3841 14.7892 17.3404 14.7317 17.2955 14.6753C17.2863 14.665 17.2782 14.6535 17.269 14.6431C17.2229 14.5856 17.1769 14.5292 17.1285 14.4751C17.1239 14.4694 17.1193 14.4648 17.1135 14.459C17.0663 14.4061 17.0191 14.3531 16.9696 14.3014C16.9627 14.2945 16.9569 14.2876 16.95 14.2807C16.9419 14.2714 16.9327 14.2634 16.9247 14.2542L16.9235 14.2519C16.5896 13.9101 16.3155 13.3302 16.3155 12.8147C16.3155 12.3902 16.4548 11.9989 16.6909 11.6825C17.0364 11.2188 17.5903 10.9185 18.2133 10.9185C19.1196 10.9185 19.8773 11.5536 20.065 12.4028C20.5994 12.0542 21.1798 11.7711 21.7959 11.564C22.397 11.3626 23.0315 11.2349 23.6879 11.19C22.9866 8.83122 20.8009 7.10986 18.211 7.10986ZM14.6353 12.809C14.6549 12.8159 14.6745 12.8228 14.694 12.8297C14.6745 12.8228 14.6549 12.8159 14.6353 12.809ZM14.8679 12.893C14.8818 12.8987 14.8967 12.9033 14.9105 12.9091C14.8967 12.9033 14.8818 12.8987 14.8679 12.893ZM15.1167 12.9954C15.1328 13.0023 15.1489 13.0103 15.165 13.0173C15.1489 13.0092 15.1328 13.0023 15.1167 12.9954ZM15.3263 13.0932C15.3435 13.1024 15.362 13.1105 15.3792 13.1197C15.362 13.1105 15.3447 13.1013 15.3263 13.0932ZM14.1367 16.8121C14.1873 16.8638 14.2403 16.9145 14.2933 16.9651C14.2438 16.9191 14.1954 16.8719 14.1482 16.8236C14.1436 16.8201 14.1401 16.8155 14.1367 16.8121ZM14.3267 16.9973C14.3808 17.0479 14.4349 17.0963 14.4914 17.1446C14.4361 17.0963 14.3808 17.0468 14.3267 16.9973ZM14.5086 17.1584C14.5616 17.2033 14.6157 17.2482 14.6699 17.2907C14.6157 17.2482 14.5616 17.2033 14.5086 17.1584ZM14.9128 17.4725C14.9739 17.5163 15.0361 17.5588 15.0994 17.6003C15.0361 17.5588 14.975 17.5163 14.9128 17.4725ZM14.7021 17.316C14.7597 17.3609 14.8184 17.4046 14.8771 17.4472C14.8173 17.4046 14.7597 17.3609 14.7021 17.316ZM16.8003 14.1311C16.7853 14.1173 16.7703 14.1023 16.7565 14.0885C16.7703 14.1023 16.7853 14.1173 16.8003 14.1311ZM15.5773 13.2232C15.5854 13.2278 15.5934 13.2324 15.6003 13.237C15.5923 13.2313 15.5842 13.2267 15.5773 13.2232ZM15.7708 13.336C15.788 13.3463 15.8065 13.3578 15.8237 13.3682C15.8065 13.3578 15.7892 13.3463 15.7708 13.336ZM15.9861 13.4729C15.9953 13.4787 16.0045 13.4844 16.0126 13.4902C16.0045 13.4844 15.9953 13.4787 15.9861 13.4729ZM16.1934 13.6179C16.2095 13.6294 16.2245 13.6409 16.2395 13.6524C16.2245 13.6409 16.2095 13.6294 16.1934 13.6179ZM16.3788 13.7606C16.3926 13.7721 16.4076 13.7836 16.4214 13.7951C16.4076 13.7824 16.3938 13.7709 16.3788 13.7606ZM16.5896 13.9366C16.5999 13.9458 16.6103 13.955 16.6206 13.9642C16.6103 13.955 16.5999 13.9447 16.5896 13.9366Z" fill="white"/>
<path d="M13.917 16.575L13.9187 16.5767C13.917 16.5767 13.917 16.575 13.917 16.575Z" fill="white"/>
<path d="M25.7973 13.2841C25.294 13.1392 24.762 13.0609 24.2127 13.0609C24.1137 13.0609 24.0146 13.0632 23.9156 13.069C23.2154 13.1046 22.5487 13.2669 21.9372 13.5327C21.0919 13.8997 20.3526 14.4658 19.7791 15.17C19.9104 15.4692 20.0232 15.7776 20.1154 16.094C20.1753 16.2977 20.2259 16.5059 20.2685 16.7165C20.3572 17.1583 20.4067 17.614 20.4159 18.08C20.4171 18.126 20.4182 18.1721 20.4182 18.2181C20.4182 18.3746 20.4125 18.5299 20.4033 18.6829C20.3722 19.1881 20.2927 19.6806 20.1683 20.1546C20.1315 20.2961 20.09 20.4354 20.0451 20.5734C19.892 21.0441 19.6927 21.4951 19.4544 21.9208C19.3784 22.0555 19.3 22.1889 19.216 22.3178C19.558 22.3777 19.8678 22.5284 20.1211 22.7447C20.1822 22.8068 20.2443 22.8678 20.3077 22.9277C20.6048 23.2625 20.7856 23.702 20.7856 24.1853C20.7856 24.618 20.6405 25.0161 20.3964 25.3348C20.0497 25.7882 19.5027 26.0816 18.8878 26.0816C17.9631 26.0816 17.1927 25.4199 17.0245 24.5443C16.4913 24.8999 15.9098 25.1887 15.2925 25.4015C14.6937 25.6075 14.0615 25.741 13.4062 25.7916C14.1007 28.1619 16.291 29.8925 18.8878 29.8925C21.2704 29.8925 23.3122 28.4335 24.1678 26.3612C24.4119 25.7709 24.5593 25.1311 24.5916 24.4603C24.5962 24.3694 24.5985 24.2774 24.5985 24.1865C24.5985 23.6203 24.5156 23.0726 24.3613 22.556C24.0952 21.662 23.615 20.8588 22.9805 20.2075C22.9195 20.1454 22.8573 20.0844 22.7939 20.0246C22.5844 19.7876 22.4324 19.4988 22.3621 19.1789C22.3333 19.0465 22.3172 18.9085 22.3172 18.7669C22.3172 18.3343 22.4623 17.9362 22.7064 17.6175C23.0531 17.1641 23.6001 16.8707 24.215 16.8707C24.352 16.8707 24.4845 16.8856 24.6135 16.9133C25.4702 17.0962 26.1128 17.8568 26.1128 18.7669C26.1128 19.3699 25.8318 19.9061 25.3931 20.2536C25.7247 20.8001 25.9884 21.3904 26.175 22.0152C26.3639 22.6469 26.4721 23.3131 26.4882 24.0035C28.5116 23.1256 29.9268 21.1119 29.9268 18.7681C29.9234 16.1653 28.1799 13.9699 25.7973 13.2841Z" fill="white"/>
<path d="M49.3963 23.6076C49.3963 24.0667 49.25 24.4464 48.9587 24.749C48.6662 25.0516 48.2907 25.2024 47.8324 25.2024C47.3948 25.2024 47.024 25.0516 46.7223 24.749C46.4194 24.4476 46.2686 24.0667 46.2686 23.6076V10.2302C46.2686 9.77228 46.4194 9.39142 46.7223 9.08995C47.024 8.78848 47.3948 8.6366 47.8324 8.6366C48.2907 8.6366 48.6662 8.78848 48.9587 9.08995C49.25 9.39257 49.3963 9.77228 49.3963 10.2302V23.6076Z" fill="#277CFB"/>
<path d="M59.9064 25.5143C58.4047 25.5143 57.07 25.306 55.9023 24.8895C54.7346 24.4729 53.6187 23.7848 52.5547 22.8264C52.3255 22.6595 52.1528 22.457 52.0388 22.2165C51.9236 21.9772 51.8672 21.7321 51.8672 21.4824C51.8672 21.0866 52.0134 20.7322 52.3048 20.4192C52.5961 20.1062 52.9612 19.9509 53.3999 19.9509C53.7328 19.9509 54.046 20.066 54.3385 20.295C55.1308 21.0245 55.9599 21.5768 56.8248 21.9519C57.6896 22.327 58.7064 22.5145 59.8753 22.5145C60.709 22.5145 61.476 22.3788 62.175 22.1084C62.8729 21.838 63.4314 21.4732 63.8483 21.0141C64.2651 20.5562 64.4736 20.0246 64.4736 19.4205C64.4736 18.6702 64.2594 18.0512 63.8321 17.561C63.4049 17.072 62.7888 16.6658 61.9861 16.3425C61.1835 16.0192 60.2185 15.7442 59.0922 15.514C58.0489 15.3265 57.1161 15.0664 56.2927 14.7328C55.4682 14.4002 54.7646 13.9779 54.1807 13.4671C53.5969 12.9573 53.1489 12.3475 52.8357 11.6387C52.5224 10.931 52.3658 10.1072 52.3658 9.16941C52.3658 7.8991 52.6986 6.80484 53.3666 5.88778C54.0333 4.97072 54.9408 4.26192 56.0877 3.76255C57.2347 3.26202 58.5279 3.01233 59.9663 3.01233C61.2802 3.01233 62.5101 3.21599 63.6571 3.62217C64.8041 4.02834 65.7322 4.5749 66.4416 5.26298C66.9426 5.70023 67.1924 6.16969 67.1924 6.66907C67.1924 7.04417 67.0416 7.39282 66.7387 7.71615C66.4359 8.03948 66.0869 8.20057 65.6908 8.20057C65.3983 8.20057 65.1484 8.11772 64.94 7.95088C64.606 7.59648 64.158 7.27891 63.5949 6.997C63.0318 6.71624 62.4318 6.48151 61.7961 6.29396C61.1593 6.1064 60.5501 6.01205 59.9663 6.01205C59.0277 6.01205 58.2251 6.14207 57.5572 6.40327C56.8892 6.66446 56.3791 7.01771 56.0244 7.46646C55.6697 7.91521 55.4924 8.44105 55.4924 9.04514C55.4924 9.75393 55.6962 10.3373 56.1027 10.7953C56.5092 11.2532 57.0769 11.6237 57.8071 11.9045C58.5372 12.1852 59.3709 12.4407 60.3094 12.6697C61.4564 12.9193 62.4836 13.2013 63.3911 13.5131C64.2985 13.8261 65.0643 14.2265 65.6908 14.7166C66.3161 15.2068 66.7963 15.8155 67.1303 16.545C67.4631 17.2745 67.6312 18.1812 67.6312 19.264C67.6312 20.5147 67.2765 21.6078 66.5683 22.5456C65.8589 23.4834 64.9261 24.2129 63.7688 24.7341C62.6126 25.2542 61.3251 25.5143 59.9064 25.5143Z" fill="#BABABA"/>
<path d="M77.8624 25.5142C76.1523 25.5142 74.6564 25.1552 73.3735 24.4361C72.0906 23.7169 71.1003 22.7274 70.4024 21.4663C69.7034 20.2063 69.3545 18.7623 69.3545 17.1376C69.3545 15.3046 69.7242 13.7363 70.4646 12.4338C71.2051 11.1312 72.1747 10.1313 73.3735 9.43288C74.5723 8.7356 75.839 8.3858 77.1737 8.3858C78.1745 8.3858 79.1395 8.58947 80.0677 8.99564C80.9958 9.40182 81.8146 9.96448 82.5228 10.6836C83.2311 11.4028 83.7942 12.2462 84.2122 13.215C84.6291 14.1839 84.8479 15.2413 84.8698 16.3874C84.849 16.805 84.6821 17.1479 84.3688 17.4183C84.0556 17.6899 83.6905 17.8245 83.2737 17.8245H71.136L70.3852 15.1677H82.1463L81.552 15.7303V14.9491C81.4899 14.2195 81.2388 13.5786 80.8012 13.0263C80.3636 12.474 79.8258 12.0471 79.1902 11.7445C78.5533 11.4431 77.8808 11.2912 77.1726 11.2912C76.5473 11.2912 75.9415 11.3901 75.3577 11.588C74.7738 11.7859 74.2625 12.1035 73.8249 12.5419C73.3873 12.9792 73.0326 13.5579 72.7609 14.2771C72.4902 14.9962 72.3544 15.8868 72.3544 16.9489C72.3544 18.0949 72.5939 19.0948 73.0741 19.9497C73.5532 20.8047 74.2004 21.4651 75.0134 21.9346C75.8264 22.4041 76.7338 22.6376 77.7346 22.6376C78.4854 22.6376 79.1107 22.5594 79.6116 22.4029C80.1126 22.2464 80.5294 22.0543 80.8634 21.8241C81.1962 21.5952 81.4887 21.3765 81.7398 21.1671C82.0726 20.9796 82.3858 20.8864 82.6783 20.8864C83.0537 20.8864 83.3669 21.0164 83.6168 21.2776C83.8667 21.5388 83.9923 21.846 83.9923 22.1992C83.9923 22.6572 83.7631 23.0749 83.3036 23.45C82.7405 23.9919 81.9632 24.4718 80.9728 24.8883C79.9836 25.306 78.946 25.5142 77.8624 25.5142Z" fill="#BABABA"/>
<path d="M89.0297 25.2024C88.5702 25.2024 88.1948 25.0517 87.9034 24.7491C87.6109 24.4476 87.4658 24.0667 87.4658 23.6076V10.3557C87.4658 9.89774 87.6121 9.51688 87.9034 9.21541C88.1948 8.91395 88.5702 8.76206 89.0297 8.76206C89.4673 8.76206 89.8369 8.91395 90.1398 9.21541C90.4415 9.51803 90.5935 9.89774 90.5935 10.3557V13.8559L90.2803 12.512C90.4473 11.9286 90.7029 11.3867 91.0472 10.8873C91.3916 10.3868 91.8027 9.94952 92.2829 9.57441C92.762 9.1993 93.2997 8.90819 93.894 8.69878C94.4882 8.49051 95.1089 8.3858 95.7549 8.3858C96.2973 8.3858 96.766 8.53193 97.1621 8.82305C97.5583 9.11531 97.7564 9.47891 97.7564 9.91731C97.7564 10.48 97.6101 10.8919 97.3188 11.1519C97.0263 11.4131 96.7038 11.5432 96.3491 11.5432C96.0359 11.5432 95.7342 11.4753 95.4417 11.3395C95.1492 11.2037 94.8049 11.1358 94.4099 11.1358C93.9723 11.1358 93.5232 11.2509 93.0648 11.4799C92.6053 11.71 92.1885 12.0483 91.8142 12.4959C91.4388 12.9446 91.1417 13.4705 90.9229 14.0746C90.7041 14.6787 90.5947 15.3564 90.5947 16.1066V23.6076C90.5947 24.0667 90.4427 24.4464 90.141 24.7491C89.8381 25.0505 89.4684 25.2024 89.0297 25.2024Z" fill="#BABABA"/>
<path d="M101.697 8.60553C102.011 8.60553 102.308 8.68952 102.589 8.85522C102.871 9.02206 103.074 9.2729 103.199 9.60543L108.111 20.9508L107.516 21.2315L112.49 9.63535C112.781 8.94727 113.251 8.61473 113.897 8.63544C114.314 8.63544 114.664 8.76547 114.945 9.02666C115.227 9.28786 115.368 9.62615 115.368 10.0427C115.368 10.1681 115.347 10.2981 115.306 10.4339C115.264 10.5697 115.212 10.6997 115.149 10.8251L109.206 24.2025C108.935 24.8273 108.486 25.1609 107.861 25.2024C107.548 25.2438 107.24 25.1771 106.938 24.9987C106.635 24.8215 106.402 24.5557 106.235 24.2013L100.322 10.824C100.281 10.7411 100.238 10.6318 100.197 10.496C100.154 10.3603 100.135 10.1992 100.135 10.0116C100.135 9.69864 100.275 9.38681 100.557 9.07384C100.837 8.76086 101.217 8.60553 101.697 8.60553Z" fill="#BABABA"/>
<path d="M120.717 23.6076C120.717 24.0667 120.57 24.4464 120.279 24.749C119.986 25.0516 119.611 25.2024 119.153 25.2024C118.715 25.2024 118.344 25.0516 118.043 24.749C117.74 24.4476 117.589 24.0667 117.589 23.6076V10.2302C117.589 9.77228 117.74 9.39142 118.043 9.08995C118.344 8.78848 118.715 8.6366 119.153 8.6366C119.611 8.6366 119.986 8.78848 120.279 9.08995C120.57 9.39257 120.717 9.77228 120.717 10.2302V23.6076Z" fill="#BABABA"/>
<path d="M131.321 8.3858C132.447 8.3858 133.442 8.50547 134.308 8.7448C135.173 8.98414 135.857 9.31782 136.357 9.74471C136.858 10.1716 137.108 10.6664 137.108 11.229C137.108 11.5834 136.998 11.9114 136.779 12.214C136.561 12.5166 136.253 12.6673 135.857 12.6673C135.544 12.6673 135.288 12.6156 135.09 12.5108C134.892 12.4073 134.709 12.2819 134.543 12.1357C134.376 11.9896 134.168 11.8446 133.918 11.6985C133.689 11.5731 133.349 11.4695 132.901 11.3855C132.452 11.3027 132.051 11.2601 131.696 11.2601C130.591 11.2601 129.636 11.5098 128.835 12.0103C128.032 12.5109 127.406 13.1874 126.958 14.0424C126.509 14.8973 126.285 15.8661 126.285 16.9489C126.285 18.0328 126.509 19.0016 126.958 19.8554C127.406 20.7103 128.022 21.3869 128.804 21.8874C129.586 22.3879 130.498 22.6376 131.541 22.6376C132.166 22.6376 132.682 22.5905 133.09 22.4973C133.496 22.4041 133.835 22.2832 134.107 22.1383C134.439 21.9507 134.711 21.7585 134.92 21.5595C135.128 21.3616 135.431 21.2626 135.827 21.2626C136.285 21.2626 136.636 21.403 136.875 21.6849C137.115 21.9657 137.234 22.3155 137.234 22.732C137.234 23.1911 136.958 23.6341 136.405 24.061C135.852 24.4879 135.118 24.8377 134.2 25.1081C133.282 25.3785 132.271 25.5142 131.166 25.5142C129.538 25.5142 128.125 25.1391 126.927 24.3889C125.727 23.6387 124.8 22.6181 124.142 21.3259C123.486 20.0337 123.156 18.5759 123.156 16.95C123.156 15.3046 123.501 13.8398 124.188 12.558C124.877 11.2762 125.835 10.2602 127.066 9.51113C128.297 8.76091 129.715 8.3858 131.321 8.3858Z" fill="#BABABA"/>
<path d="M146.993 25.5142C145.283 25.5142 143.787 25.1552 142.504 24.4361C141.222 23.7169 140.231 22.7274 139.533 21.4663C138.834 20.2063 138.485 18.7623 138.485 17.1376C138.485 15.3046 138.855 13.7363 139.595 12.4338C140.336 11.1312 141.306 10.1313 142.504 9.43288C143.703 8.7356 144.97 8.3858 146.305 8.3858C147.305 8.3858 148.27 8.58947 149.199 8.99564C150.127 9.40182 150.945 9.96448 151.654 10.6836C152.362 11.4028 152.925 12.2462 153.343 13.215C153.76 14.1839 153.979 15.2413 154.001 16.3874C153.98 16.805 153.813 17.1479 153.5 17.4183C153.186 17.6899 152.821 17.8245 152.405 17.8245H140.267L139.516 15.1677H151.277L150.683 15.7303V14.9491C150.621 14.2195 150.37 13.5786 149.932 13.0263C149.494 12.474 148.957 12.0471 148.321 11.7445C147.684 11.4431 147.012 11.2912 146.303 11.2912C145.678 11.2912 145.072 11.3901 144.489 11.588C143.905 11.7859 143.393 12.1035 142.956 12.5419C142.518 12.9792 142.164 13.5579 141.892 14.2771C141.621 14.9962 141.485 15.8868 141.485 16.9489C141.485 18.0949 141.725 19.0948 142.205 19.9497C142.684 20.8047 143.331 21.4651 144.144 21.9346C144.957 22.4041 145.865 22.6376 146.865 22.6376C147.616 22.6376 148.242 22.5594 148.743 22.4029C149.243 22.2464 149.66 22.0543 149.994 21.8241C150.327 21.5952 150.62 21.3765 150.871 21.1671C151.203 20.9796 151.517 20.8864 151.809 20.8864C152.185 20.8864 152.498 21.0164 152.748 21.2776C152.998 21.5388 153.123 21.846 153.123 22.1992C153.123 22.6572 152.894 23.0749 152.434 23.45C151.871 23.9919 151.094 24.4718 150.104 24.8883C149.114 25.306 148.077 25.5142 146.993 25.5142Z" fill="#BABABA"/>
<path d="M104.87 8.6366L107.872 15.5715L110.847 8.6366H104.87Z" fill="#277CFB"/>
<path d="M47.8321 6.46191C48.6945 6.46191 49.3936 5.76335 49.3936 4.90164C49.3936 4.03993 48.6945 3.34137 47.8321 3.34137C46.9696 3.34137 46.2705 4.03993 46.2705 4.90164C46.2705 5.76335 46.9696 6.46191 47.8321 6.46191Z" fill="#277CFB"/>
<path d="M119.153 6.46191C120.016 6.46191 120.715 5.76335 120.715 4.90164C120.715 4.03993 120.016 3.34137 119.153 3.34137C118.291 3.34137 117.592 4.03993 117.592 4.90164C117.592 5.76335 118.291 6.46191 119.153 6.46191Z" fill="#BABABA"/>
<path d="M147.397 32.7206C147.317 32.708 147.237 32.6988 147.158 32.6815C146.971 32.6424 146.8 32.563 146.643 32.4537C146.444 32.3133 146.286 32.1338 146.176 31.9163C146.04 31.6494 145.992 31.3675 146.029 31.0706C146.064 30.783 146.176 30.5275 146.365 30.3078C146.425 30.2376 146.493 30.1743 146.562 30.1144C146.627 30.0581 146.706 30.0477 146.785 30.0822C146.863 30.1156 146.907 30.1766 146.915 30.2606C146.921 30.325 146.9 30.3825 146.855 30.4286C146.798 30.4873 146.733 30.5413 146.681 30.6058C146.491 30.8417 146.418 31.1132 146.465 31.4135C146.532 31.8404 146.855 32.1798 147.277 32.2673C147.687 32.3524 148.119 32.1775 148.347 31.8254C148.554 31.5044 148.579 31.1661 148.424 30.8163C148.37 30.6955 148.29 30.5897 148.192 30.4999C148.158 30.4677 148.121 30.4378 148.094 30.401C148.03 30.3101 148.046 30.1927 148.126 30.1214C148.207 30.0477 148.325 30.0454 148.411 30.1156C148.536 30.2169 148.641 30.3354 148.728 30.4711C148.912 30.7646 148.985 31.0856 148.946 31.4296C148.878 32.0211 148.451 32.5135 147.873 32.67C147.786 32.6942 147.694 32.7022 147.604 32.7172C147.595 32.7183 147.585 32.7206 147.576 32.7229C147.516 32.7206 147.456 32.7206 147.397 32.7206Z" fill="#277CFB" stroke="#277CFB" stroke-width="0.117204" stroke-miterlimit="10"/>
<path d="M147.27 30.1755C147.27 30.0109 147.269 29.8464 147.27 29.6819C147.271 29.538 147.393 29.4368 147.529 29.4644C147.632 29.4851 147.703 29.5737 147.703 29.6888C147.703 29.95 147.703 30.2112 147.703 30.4724C147.703 30.5379 147.704 30.6035 147.703 30.6703C147.7 30.7635 147.657 30.8337 147.572 30.8705C147.49 30.905 147.41 30.8923 147.344 30.8325C147.293 30.7876 147.271 30.7289 147.271 30.6622C147.27 30.5 147.27 30.3377 147.27 30.1755Z" fill="#277CFB" stroke="#277CFB" stroke-width="0.117204" stroke-miterlimit="10"/>
<path d="M89.2279 28.3644C89.449 28.3644 89.6529 28.4243 89.8406 28.5428C90.0283 28.6613 90.178 28.8235 90.2908 29.0272C90.4037 29.2309 90.4601 29.461 90.4601 29.7153C90.4601 29.9696 90.4037 30.1997 90.2908 30.4057C90.178 30.6116 90.0283 30.7762 89.8406 30.8993C89.6529 31.0224 89.4479 31.0834 89.2279 31.0834H88.0211L88.0706 30.9833V32.4216C88.0706 32.5137 88.0418 32.5896 87.9865 32.6494C87.9301 32.7104 87.8564 32.7403 87.7643 32.7403C87.6767 32.7403 87.6042 32.7104 87.5489 32.6494C87.4925 32.5896 87.4648 32.5125 87.4648 32.4216V28.6832C87.4648 28.5911 87.4959 28.5152 87.5593 28.4553C87.6215 28.3955 87.6975 28.3644 87.7838 28.3644H89.2279ZM89.2279 30.4839C89.3362 30.4839 89.4352 30.4483 89.525 30.3781C89.6149 30.3067 89.6874 30.2135 89.7438 30.0973C89.8003 29.9811 89.8279 29.8534 89.8279 29.7164C89.8279 29.5784 89.7991 29.4541 89.7438 29.3413C89.6874 29.2286 89.6149 29.1377 89.525 29.0698C89.4352 29.0007 89.3362 28.9662 89.2279 28.9662H88.0084L88.0706 28.873V30.5668L88.0142 30.4851H89.2279V30.4839Z" fill="#575757"/>
<path d="M94.0646 31.0971C94.0646 31.4308 93.9909 31.7254 93.8423 31.982C93.6949 32.2385 93.4957 32.4399 93.2446 32.5849C92.9936 32.7299 92.7126 32.8035 92.4005 32.8035C92.0919 32.8035 91.8121 32.731 91.5587 32.5849C91.3054 32.4388 91.1062 32.2374 90.9576 31.982C90.8102 31.7254 90.7354 31.4308 90.7354 31.0971C90.7354 30.76 90.8091 30.4631 90.9576 30.2065C91.1062 29.9499 91.3054 29.7486 91.5587 29.6001C91.8109 29.4528 92.0919 29.3781 92.4005 29.3781C92.7138 29.3781 92.9948 29.4517 93.2446 29.6001C93.4945 29.7486 93.6938 29.9499 93.8423 30.2065C93.9909 30.462 94.0646 30.7588 94.0646 31.0971ZM93.4393 31.0971C93.4393 30.8681 93.3932 30.6691 93.3011 30.4999C93.209 30.3308 93.0857 30.1973 92.9291 30.0995C92.7725 30.0017 92.5963 29.9522 92.4005 29.9522C92.2082 29.9522 92.0343 30.0017 91.8777 30.0995C91.7211 30.1973 91.5967 30.3308 91.5023 30.4999C91.409 30.6691 91.3618 30.8681 91.3618 31.0971C91.3618 31.318 91.409 31.5136 91.5023 31.6851C91.5967 31.8565 91.7211 31.9889 91.8777 32.0855C92.0343 32.181 92.2082 32.2293 92.4005 32.2293C92.5963 32.2293 92.7725 32.181 92.9291 32.0855C93.0857 31.99 93.2101 31.8565 93.3011 31.6851C93.3932 31.5136 93.4393 31.318 93.4393 31.0971Z" fill="#575757"/>
<path d="M98.4179 29.4218C98.4973 29.4218 98.5664 29.4517 98.6275 29.5127C98.6885 29.5736 98.7184 29.6507 98.7184 29.7474C98.7184 29.7681 98.7161 29.7888 98.7127 29.8095C98.7081 29.8302 98.7023 29.8486 98.6943 29.8659L97.7373 32.5411C97.712 32.6125 97.6682 32.6654 97.606 32.7011C97.5438 32.7367 97.4782 32.7506 97.4125 32.7414C97.2916 32.7333 97.2018 32.6666 97.1431 32.5411L96.436 30.6656L96.58 30.6783L95.9293 32.5411C95.8706 32.6666 95.7808 32.7333 95.6598 32.7414C95.5977 32.7494 95.5332 32.7367 95.4687 32.7011C95.4042 32.6654 95.3593 32.6125 95.3339 32.5411L94.3701 29.8659C94.3528 29.8279 94.3447 29.7888 94.3447 29.7474C94.3447 29.6599 94.3724 29.584 94.4288 29.5196C94.4852 29.4551 94.5612 29.4229 94.6568 29.4229C94.7236 29.4229 94.7823 29.4402 94.8353 29.4735C94.8871 29.5069 94.924 29.5564 94.9447 29.6231L95.7462 31.8795L95.6023 31.8669L96.2529 30.1605C96.307 30.0316 96.4026 29.9672 96.5408 29.9672C96.6156 29.9672 96.6744 29.9844 96.7158 30.0166C96.7573 30.05 96.7907 30.0983 96.816 30.1605L97.4793 31.8738L97.3101 31.8922L98.1173 29.6231C98.1599 29.4885 98.259 29.4218 98.4179 29.4218Z" fill="#575757"/>
<path d="M100.702 32.8035C100.36 32.8035 100.061 32.7322 99.8038 32.5883C99.547 32.4445 99.3489 32.2466 99.2096 31.9946C99.0703 31.7426 99 31.4538 99 31.1293C99 30.7623 99.0737 30.4493 99.2223 30.1881C99.3708 29.9281 99.5643 29.7278 99.8038 29.5875C100.043 29.4482 100.297 29.3781 100.564 29.3781C100.764 29.3781 100.957 29.4183 101.143 29.5C101.328 29.5817 101.492 29.6933 101.635 29.8372C101.776 29.981 101.889 30.1501 101.972 30.3434C102.055 30.5367 102.099 30.7485 102.104 30.9774C102.099 31.0603 102.066 31.1293 102.003 31.1834C101.941 31.2375 101.867 31.2651 101.785 31.2651H99.357L99.2073 30.7335H101.56L101.441 30.8463V30.6898C101.429 30.5437 101.379 30.4159 101.292 30.3055C101.204 30.195 101.097 30.1099 100.969 30.0489C100.841 29.989 100.708 29.958 100.566 29.958C100.441 29.958 100.32 29.9775 100.203 30.0178C100.087 30.0569 99.9846 30.1214 99.8971 30.2088C99.8096 30.2963 99.7382 30.4125 99.684 30.5552C99.6299 30.6978 99.6023 30.8773 99.6023 31.0891C99.6023 31.318 99.6507 31.5182 99.7462 31.6897C99.8418 31.8611 99.9708 31.9923 100.134 32.0867C100.297 32.181 100.479 32.227 100.679 32.227C100.829 32.227 100.954 32.2109 101.054 32.1799C101.155 32.1488 101.238 32.1097 101.304 32.0637C101.371 32.0176 101.43 31.9739 101.479 31.9325C101.546 31.8945 101.608 31.8761 101.667 31.8761C101.742 31.8761 101.805 31.9026 101.855 31.9543C101.905 32.0061 101.93 32.0682 101.93 32.1384C101.93 32.2305 101.884 32.3133 101.791 32.3881C101.679 32.4963 101.523 32.5918 101.325 32.6758C101.127 32.7609 100.919 32.8035 100.702 32.8035Z" fill="#575757"/>
<path d="M102.935 32.7403C102.843 32.7403 102.768 32.7104 102.711 32.6494C102.652 32.5895 102.623 32.5125 102.623 32.4216V29.7705C102.623 29.6784 102.652 29.6025 102.711 29.5426C102.769 29.4828 102.844 29.4517 102.935 29.4517C103.023 29.4517 103.096 29.4817 103.157 29.5426C103.218 29.6036 103.248 29.6796 103.248 29.7705V30.4701L103.186 30.2008C103.22 30.0846 103.27 29.9753 103.339 29.8763C103.408 29.7762 103.49 29.6888 103.587 29.614C103.683 29.5392 103.791 29.4805 103.909 29.4391C104.028 29.3977 104.152 29.377 104.281 29.377C104.39 29.377 104.484 29.4057 104.563 29.4644C104.643 29.5231 104.682 29.5956 104.682 29.683C104.682 29.7958 104.653 29.8775 104.595 29.9304C104.536 29.9822 104.471 30.0087 104.401 30.0087C104.339 30.0087 104.278 29.9948 104.219 29.9684C104.16 29.9408 104.091 29.9281 104.013 29.9281C103.925 29.9281 103.836 29.9511 103.744 29.9972C103.651 30.0432 103.568 30.1111 103.494 30.2008C103.419 30.2906 103.359 30.3953 103.315 30.5161C103.271 30.6369 103.25 30.7727 103.25 30.9223V32.4227C103.25 32.5148 103.22 32.5907 103.159 32.6505C103.097 32.7104 103.024 32.7403 102.935 32.7403Z" fill="#575757"/>
<path d="M106.445 32.8035C106.103 32.8035 105.804 32.7322 105.547 32.5883C105.29 32.4445 105.092 32.2466 104.953 31.9946C104.813 31.7426 104.743 31.4538 104.743 31.1293C104.743 30.7623 104.817 30.4493 104.965 30.1881C105.114 29.9281 105.307 29.7278 105.547 29.5875C105.787 29.4482 106.04 29.3781 106.307 29.3781C106.507 29.3781 106.7 29.4183 106.886 29.5C107.072 29.5817 107.235 29.6933 107.378 29.8372C107.52 29.981 107.632 30.1501 107.715 30.3434C107.798 30.5367 107.842 30.7485 107.847 30.9774C107.842 31.0603 107.81 31.1293 107.747 31.1834C107.684 31.2375 107.611 31.2651 107.528 31.2651H105.1L104.95 30.7335H107.303L107.185 30.8463V30.6898C107.172 30.5437 107.122 30.4159 107.035 30.3055C106.947 30.195 106.84 30.1099 106.712 30.0489C106.585 29.989 106.451 29.958 106.309 29.958C106.184 29.958 106.063 29.9775 105.947 30.0178C105.83 30.0569 105.728 30.1214 105.64 30.2088C105.553 30.2963 105.481 30.4125 105.427 30.5552C105.373 30.6978 105.345 30.8773 105.345 31.0891C105.345 31.318 105.394 31.5182 105.489 31.6897C105.585 31.8611 105.714 31.9923 105.877 32.0867C106.04 32.181 106.222 32.227 106.422 32.227C106.572 32.227 106.697 32.2109 106.798 32.1799C106.898 32.1488 106.981 32.1097 107.047 32.0637C107.114 32.0176 107.173 31.9739 107.223 31.9325C107.289 31.8945 107.352 31.8761 107.41 31.8761C107.485 31.8761 107.548 31.9026 107.598 31.9543C107.649 32.0061 107.673 32.0682 107.673 32.1384C107.673 32.2305 107.627 32.3133 107.535 32.3881C107.422 32.4963 107.266 32.5918 107.068 32.6758C106.87 32.7609 106.663 32.8035 106.445 32.8035Z" fill="#575757"/>
<path d="M111.037 28.1147C111.125 28.1147 111.198 28.1435 111.259 28.2021C111.319 28.2608 111.35 28.3379 111.35 28.4334V32.4215C111.35 32.5136 111.32 32.5895 111.259 32.6494C111.198 32.7103 111.125 32.7403 111.037 32.7403C110.945 32.7403 110.87 32.7103 110.811 32.6494C110.753 32.5895 110.724 32.5124 110.724 32.4215V31.9716L110.849 31.9774C110.849 32.0522 110.819 32.1373 110.758 32.2305C110.697 32.3237 110.616 32.4146 110.511 32.5021C110.406 32.5895 110.284 32.662 110.142 32.7172C110.001 32.7736 109.849 32.8012 109.685 32.8012C109.402 32.8012 109.144 32.7276 108.912 32.5792C108.681 32.4307 108.499 32.2294 108.365 31.9728C108.232 31.7162 108.165 31.4216 108.165 31.0879C108.165 30.7543 108.232 30.4597 108.365 30.2031C108.499 29.9465 108.679 29.7451 108.907 29.5967C109.134 29.4494 109.387 29.3746 109.667 29.3746C109.842 29.3746 110.005 29.4034 110.157 29.4621C110.309 29.5208 110.442 29.5956 110.555 29.6876C110.667 29.7797 110.756 29.8763 110.821 29.9787C110.885 30.0811 110.917 30.1778 110.917 30.2698L110.724 30.2882V28.4311C110.724 28.3391 110.753 28.2631 110.811 28.2033C110.87 28.1446 110.945 28.1147 111.037 28.1147ZM109.761 32.2282C109.957 32.2282 110.13 32.1787 110.277 32.0786C110.426 31.9785 110.541 31.8428 110.625 31.6725C110.708 31.5022 110.75 31.3077 110.75 31.0914C110.75 30.8751 110.709 30.6806 110.625 30.5103C110.542 30.34 110.426 30.2042 110.277 30.1041C110.13 30.004 109.957 29.9546 109.761 29.9546C109.569 29.9546 109.398 30.004 109.249 30.1041C109.099 30.2042 108.982 30.34 108.899 30.5103C108.816 30.6818 108.773 30.8751 108.773 31.0914C108.773 31.3077 108.815 31.5022 108.899 31.6725C108.982 31.8439 109.099 31.9785 109.249 32.0786C109.397 32.1776 109.569 32.2282 109.761 32.2282Z" fill="#575757"/>
<path d="M115.305 29.3781C115.597 29.3781 115.856 29.4506 116.083 29.5967C116.31 29.7428 116.491 29.9442 116.624 30.1996C116.758 30.4562 116.825 30.7508 116.825 31.0845C116.825 31.4182 116.758 31.7139 116.624 31.9716C116.491 32.2305 116.311 32.433 116.086 32.5815C115.862 32.7299 115.607 32.8035 115.323 32.8035C115.164 32.8035 115.014 32.7771 114.873 32.7253C114.731 32.6735 114.606 32.6068 114.497 32.5251C114.389 32.4434 114.3 32.3571 114.231 32.2662C114.162 32.1741 114.12 32.089 114.103 32.0096L114.273 31.9279V32.4722C114.273 32.5596 114.243 32.6332 114.182 32.6942C114.121 32.7541 114.047 32.7851 113.96 32.7851C113.867 32.7851 113.793 32.7564 113.735 32.6977C113.676 32.639 113.647 32.5642 113.647 32.4722V28.4334C113.647 28.3414 113.676 28.2654 113.735 28.2056C113.794 28.1457 113.869 28.1147 113.96 28.1147C114.047 28.1147 114.121 28.1446 114.182 28.2056C114.243 28.2654 114.273 28.3425 114.273 28.4334V30.1904L114.173 30.1341C114.185 30.0547 114.224 29.973 114.291 29.8867C114.358 29.8015 114.442 29.7187 114.545 29.6393C114.647 29.5599 114.763 29.4966 114.895 29.4483C115.026 29.4011 115.163 29.3781 115.305 29.3781ZM115.235 29.9523C115.035 29.9523 114.861 30.0017 114.713 30.1018C114.564 30.2019 114.449 30.3366 114.365 30.5046C114.282 30.6737 114.239 30.8659 114.239 31.0833C114.239 31.2997 114.281 31.4953 114.365 31.6679C114.449 31.8405 114.564 31.9774 114.713 32.0775C114.86 32.1776 115.035 32.2271 115.235 32.2271C115.431 32.2271 115.603 32.1776 115.748 32.0775C115.894 31.9774 116.009 31.8405 116.095 31.6644C116.18 31.4895 116.222 31.2951 116.222 31.0833C116.222 30.867 116.18 30.6737 116.095 30.5046C116.009 30.3354 115.893 30.2008 115.748 30.1018C115.603 30.0029 115.431 29.9523 115.235 29.9523Z" fill="#575757"/>
<path d="M119.79 29.4276C119.882 29.4276 119.957 29.4575 120.016 29.5185C120.075 29.5795 120.104 29.6554 120.104 29.7463V32.4342C120.104 32.8013 120.033 33.0993 119.894 33.3283C119.755 33.5573 119.567 33.7253 119.331 33.8311C119.095 33.937 118.829 33.9911 118.533 33.9911C118.383 33.9911 118.232 33.9772 118.083 33.9508C117.933 33.9232 117.81 33.8852 117.714 33.8357C117.614 33.7897 117.542 33.7333 117.501 33.6666C117.46 33.5998 117.453 33.5273 117.483 33.448C117.511 33.3478 117.562 33.28 117.632 33.2443C117.704 33.2086 117.776 33.2052 117.851 33.2351C117.922 33.2639 118.016 33.3018 118.133 33.3478C118.25 33.3939 118.383 33.4169 118.534 33.4169C118.738 33.4169 118.912 33.3835 119.053 33.3168C119.195 33.25 119.303 33.1453 119.376 33.0038C119.448 32.8623 119.485 32.6782 119.485 32.4538V32.0223L119.585 32.1719C119.519 32.31 119.431 32.4239 119.323 32.5159C119.215 32.608 119.086 32.6782 118.938 32.7288C118.791 32.7794 118.626 32.8036 118.448 32.8036C118.218 32.8036 118.022 32.753 117.857 32.6506C117.692 32.5482 117.565 32.4066 117.478 32.226C117.39 32.0442 117.347 31.8371 117.347 31.6035V29.7463C117.347 29.6543 117.375 29.5784 117.434 29.5185C117.493 29.4587 117.568 29.4276 117.659 29.4276C117.746 29.4276 117.82 29.4575 117.881 29.5185C117.942 29.5795 117.972 29.6554 117.972 29.7463V31.4343C117.972 31.7093 118.032 31.9107 118.154 32.0373C118.275 32.165 118.454 32.2283 118.692 32.2283C118.851 32.2283 118.988 32.1949 119.105 32.1282C119.221 32.0614 119.314 31.9682 119.38 31.8497C119.447 31.7312 119.481 31.592 119.481 31.4343V29.7463C119.481 29.6543 119.511 29.5784 119.572 29.5185C119.629 29.4575 119.703 29.4276 119.79 29.4276Z" fill="#575757"/>
<path d="M122.211 32.2282C122.173 32.1696 122.157 32.1017 122.162 32.0246C122.165 31.9475 122.21 31.8819 122.293 31.8278C122.352 31.7899 122.413 31.7749 122.477 31.7806C122.542 31.7864 122.603 31.8198 122.662 31.8773C122.778 32.0062 122.909 32.1086 123.053 32.1834C123.197 32.2582 123.371 32.2961 123.576 32.2961C123.659 32.2915 123.745 32.2789 123.833 32.2559C123.92 32.2328 123.995 32.1914 124.059 32.1304C124.121 32.0706 124.152 31.982 124.152 31.8646C124.152 31.7599 124.118 31.6771 124.052 31.615C123.985 31.5528 123.897 31.501 123.789 31.4619C123.681 31.4228 123.565 31.386 123.439 31.3526C123.305 31.3146 123.171 31.2732 123.036 31.2272C122.9 31.1812 122.778 31.1225 122.67 31.0488C122.562 30.9763 122.473 30.8808 122.404 30.7646C122.335 30.6484 122.3 30.5046 122.3 30.3331C122.3 30.1375 122.355 29.9684 122.466 29.8269C122.576 29.6853 122.72 29.5749 122.898 29.4955C123.075 29.4161 123.267 29.377 123.477 29.377C123.598 29.377 123.726 29.3931 123.858 29.4241C123.992 29.4552 124.121 29.5047 124.246 29.5714C124.372 29.6381 124.48 29.7256 124.571 29.8338C124.612 29.8878 124.637 29.9523 124.642 30.0271C124.648 30.1019 124.615 30.1686 124.539 30.2273C124.489 30.2687 124.428 30.2871 124.357 30.2837C124.285 30.2791 124.228 30.2572 124.182 30.2146C124.102 30.1145 124 30.0363 123.875 29.9799C123.75 29.9235 123.608 29.8959 123.451 29.8959C123.371 29.8959 123.289 29.9074 123.203 29.9304C123.118 29.9534 123.045 29.9937 122.986 30.0524C122.928 30.1111 122.899 30.1962 122.899 30.309C122.899 30.4137 122.933 30.4965 123.003 30.5587C123.072 30.6208 123.163 30.6737 123.274 30.7151C123.387 30.7566 123.509 30.7945 123.643 30.8279C123.772 30.8613 123.9 30.9004 124.027 30.9464C124.154 30.9925 124.269 31.0523 124.372 31.1248C124.474 31.1973 124.557 31.2916 124.622 31.4055C124.686 31.5206 124.718 31.6644 124.718 31.8405C124.718 32.0441 124.659 32.219 124.54 32.3629C124.421 32.5067 124.27 32.616 124.09 32.6908C123.908 32.7656 123.718 32.8036 123.517 32.8036C123.28 32.8036 123.043 32.761 122.807 32.6758C122.571 32.5907 122.374 32.4411 122.211 32.2282Z" fill="#575757"/>
<path d="M126.741 32.8035C126.399 32.8035 126.1 32.7322 125.843 32.5883C125.586 32.4445 125.388 32.2466 125.249 31.9946C125.109 31.7426 125.039 31.4538 125.039 31.1293C125.039 30.7623 125.113 30.4493 125.261 30.1881C125.41 29.9281 125.603 29.7278 125.843 29.5875C126.082 29.4482 126.336 29.3781 126.603 29.3781C126.803 29.3781 126.996 29.4183 127.182 29.5C127.368 29.5817 127.531 29.6933 127.674 29.8372C127.816 29.981 127.928 30.1501 128.011 30.3434C128.094 30.5367 128.138 30.7485 128.143 30.9774C128.138 31.0603 128.106 31.1293 128.042 31.1834C127.98 31.2375 127.907 31.2651 127.824 31.2651H125.396L125.246 30.7335H127.599L127.48 30.8463V30.6898C127.468 30.5437 127.418 30.4159 127.331 30.3055C127.243 30.195 127.136 30.1099 127.008 30.0489C126.88 29.989 126.747 29.958 126.605 29.958C126.48 29.958 126.359 29.9775 126.242 30.0178C126.126 30.0569 126.024 30.1214 125.936 30.2088C125.849 30.2963 125.777 30.4125 125.723 30.5552C125.669 30.6978 125.641 30.8773 125.641 31.0891C125.641 31.318 125.69 31.5182 125.785 31.6897C125.881 31.8611 126.01 31.9923 126.173 32.0867C126.336 32.181 126.518 32.227 126.718 32.227C126.868 32.227 126.993 32.2109 127.093 32.1799C127.194 32.1488 127.277 32.1097 127.343 32.0637C127.41 32.0176 127.469 31.9739 127.518 31.9325C127.585 31.8945 127.647 31.8761 127.706 31.8761C127.781 31.8761 127.844 31.9026 127.894 31.9543C127.945 32.0061 127.969 32.0682 127.969 32.1384C127.969 32.2305 127.923 32.3133 127.831 32.3881C127.718 32.4963 127.562 32.5918 127.364 32.6758C127.166 32.7609 126.958 32.8035 126.741 32.8035Z" fill="#575757"/>
<path d="M128.974 32.7403C128.882 32.7403 128.807 32.7104 128.75 32.6494C128.691 32.5895 128.662 32.5125 128.662 32.4216V29.7705C128.662 29.6784 128.691 29.6025 128.75 29.5426C128.808 29.4828 128.883 29.4517 128.974 29.4517C129.062 29.4517 129.135 29.4817 129.196 29.5426C129.257 29.6036 129.287 29.6796 129.287 29.7705V30.4701L129.225 30.2008C129.259 30.0846 129.309 29.9753 129.378 29.8763C129.447 29.7762 129.529 29.6888 129.626 29.614C129.722 29.5392 129.83 29.4805 129.948 29.4391C130.067 29.3977 130.191 29.377 130.32 29.377C130.429 29.377 130.523 29.4057 130.603 29.4644C130.682 29.5231 130.721 29.5956 130.721 29.683C130.721 29.7958 130.692 29.8775 130.634 29.9304C130.575 29.9822 130.51 30.0087 130.44 30.0087C130.378 30.0087 130.317 29.9948 130.258 29.9684C130.199 29.9408 130.13 29.9281 130.052 29.9281C129.965 29.9281 129.875 29.9511 129.783 29.9972C129.69 30.0432 129.608 30.1111 129.533 30.2008C129.458 30.2906 129.398 30.3953 129.354 30.5161C129.31 30.6369 129.289 30.7727 129.289 30.9223V32.4227C129.289 32.5148 129.259 32.5907 129.198 32.6505C129.135 32.7104 129.062 32.7403 128.974 32.7403Z" fill="#575757"/>
<path d="M131.509 29.4218C131.571 29.4218 131.631 29.439 131.687 29.4724C131.743 29.5057 131.784 29.5552 131.809 29.622L132.791 31.891L132.673 31.9474L133.668 29.6277C133.726 29.4896 133.82 29.4241 133.949 29.4275C134.032 29.4275 134.102 29.454 134.158 29.5058C134.215 29.5575 134.242 29.6254 134.242 29.7094C134.242 29.7347 134.238 29.76 134.23 29.7877C134.222 29.8153 134.211 29.8406 134.199 29.8659L133.01 32.5411C132.956 32.6666 132.866 32.7333 132.741 32.7414C132.679 32.7494 132.616 32.7367 132.556 32.7011C132.495 32.6654 132.449 32.6125 132.416 32.5411L131.233 29.8659C131.225 29.8498 131.217 29.8279 131.208 29.8003C131.2 29.7739 131.195 29.7405 131.195 29.7037C131.195 29.6415 131.223 29.5782 131.279 29.5161C131.336 29.4528 131.412 29.4218 131.509 29.4218Z" fill="#575757"/>
<path d="M134.992 29.0156C134.872 29.0156 134.784 28.9938 134.73 28.95C134.676 28.9063 134.648 28.8327 134.648 28.728V28.6279C134.648 28.5243 134.677 28.4507 134.736 28.4092C134.795 28.3678 134.882 28.3471 134.998 28.3471C135.124 28.3471 135.212 28.369 135.267 28.4127C135.322 28.4564 135.349 28.5289 135.349 28.6279V28.728C135.349 28.8361 135.32 28.9109 135.265 28.9535C135.208 28.9938 135.117 29.0156 134.992 29.0156ZM135.311 32.4215C135.311 32.5136 135.282 32.5895 135.224 32.6493C135.165 32.7103 135.09 32.7403 134.999 32.7403C134.912 32.7403 134.838 32.7103 134.777 32.6493C134.716 32.5895 134.686 32.5124 134.686 32.4215V29.7463C134.686 29.6542 134.716 29.5783 134.777 29.5185C134.838 29.4586 134.912 29.4276 134.999 29.4276C135.091 29.4276 135.166 29.4575 135.224 29.5185C135.282 29.5794 135.311 29.6554 135.311 29.7463V32.4215Z" fill="#575757"/>
<path d="M137.434 29.3781C137.658 29.3781 137.858 29.4022 138.031 29.4494C138.204 29.4977 138.341 29.5645 138.441 29.6496C138.542 29.7348 138.591 29.8337 138.591 29.9465C138.591 30.0178 138.569 30.0834 138.525 30.1432C138.482 30.2042 138.419 30.2341 138.341 30.2341C138.279 30.2341 138.227 30.2238 138.188 30.2031C138.149 30.1824 138.112 30.157 138.079 30.1283C138.045 30.0995 138.004 30.0696 137.953 30.0408C137.907 30.0155 137.839 29.9948 137.749 29.9787C137.659 29.9626 137.579 29.9534 137.509 29.9534C137.287 29.9534 137.096 30.0028 136.936 30.103C136.775 30.2031 136.651 30.3388 136.561 30.5091C136.471 30.6806 136.426 30.8739 136.426 31.0902C136.426 31.3065 136.471 31.501 136.561 31.6713C136.651 31.8427 136.774 31.9774 136.93 32.0775C137.087 32.1776 137.269 32.227 137.477 32.227C137.603 32.227 137.705 32.2178 137.787 32.1994C137.869 32.181 137.936 32.1569 137.991 32.1281C138.058 32.0901 138.112 32.0521 138.153 32.013C138.195 31.9739 138.256 31.9532 138.335 31.9532C138.428 31.9532 138.497 31.9808 138.545 32.0372C138.593 32.0936 138.616 32.1638 138.616 32.2466C138.616 32.3387 138.561 32.4272 138.451 32.5124C138.34 32.5975 138.193 32.6677 138.01 32.7218C137.826 32.7759 137.624 32.8035 137.403 32.8035C137.077 32.8035 136.795 32.7287 136.555 32.578C136.316 32.4284 136.13 32.2236 135.998 31.9658C135.866 31.7069 135.801 31.4158 135.801 31.0902C135.801 30.7611 135.87 30.4689 136.007 30.2123C136.144 29.9557 136.336 29.7532 136.583 29.6024C136.828 29.4528 137.112 29.3781 137.434 29.3781Z" fill="#575757"/>
<path d="M140.566 32.8035C140.224 32.8035 139.925 32.7322 139.668 32.5883C139.411 32.4445 139.213 32.2466 139.074 31.9946C138.934 31.7426 138.864 31.4538 138.864 31.1293C138.864 30.7623 138.938 30.4493 139.087 30.1881C139.235 29.9281 139.429 29.7278 139.668 29.5875C139.908 29.4482 140.161 29.3781 140.428 29.3781C140.628 29.3781 140.821 29.4183 141.007 29.5C141.193 29.5817 141.356 29.6933 141.499 29.8372C141.641 29.981 141.754 30.1501 141.837 30.3434C141.919 30.5367 141.963 30.7485 141.968 30.9774C141.963 31.0603 141.931 31.1293 141.868 31.1834C141.805 31.2375 141.732 31.2651 141.649 31.2651H139.221L139.072 30.7335H141.424L141.306 30.8463V30.6898C141.293 30.5437 141.243 30.4159 141.156 30.3055C141.068 30.195 140.961 30.1099 140.833 30.0489C140.706 29.989 140.572 29.958 140.43 29.958C140.305 29.958 140.184 29.9775 140.068 30.0178C139.951 30.0569 139.849 30.1214 139.761 30.2088C139.674 30.2963 139.602 30.4125 139.548 30.5552C139.494 30.699 139.467 30.8773 139.467 31.0891C139.467 31.318 139.515 31.5182 139.61 31.6897C139.706 31.8611 139.835 31.9923 139.999 32.0867C140.161 32.181 140.343 32.227 140.543 32.227C140.693 32.227 140.818 32.2109 140.919 32.1799C141.019 32.1488 141.102 32.1097 141.169 32.0637C141.235 32.0176 141.294 31.9739 141.344 31.9325C141.41 31.8945 141.473 31.8761 141.531 31.8761C141.606 31.8761 141.67 31.9026 141.719 31.9543C141.77 32.0061 141.794 32.0682 141.794 32.1384C141.794 32.2305 141.748 32.3133 141.656 32.3881C141.543 32.4963 141.387 32.5918 141.189 32.6758C140.991 32.7609 140.784 32.8035 140.566 32.8035Z" fill="#575757"/>
<path d="M144.182 29.3781C144.478 29.3781 144.708 29.439 144.871 29.5622C145.033 29.6853 145.147 29.8498 145.212 30.0558C145.276 30.2617 145.309 30.493 145.309 30.7462V32.4215C145.309 32.5135 145.279 32.5895 145.218 32.6493C145.157 32.7103 145.083 32.7402 144.995 32.7402C144.903 32.7402 144.828 32.7103 144.77 32.6493C144.711 32.5895 144.682 32.5124 144.682 32.4215V30.7519C144.682 30.6023 144.662 30.4677 144.62 30.3492C144.579 30.2307 144.506 30.1352 144.404 30.0615C144.301 29.989 144.158 29.9522 143.975 29.9522C143.804 29.9522 143.654 29.989 143.525 30.0615C143.396 30.134 143.295 30.2307 143.222 30.3492C143.149 30.4677 143.113 30.6023 143.113 30.7519V32.4215C143.113 32.5135 143.083 32.5895 143.022 32.6493C142.961 32.7103 142.887 32.7402 142.799 32.7402C142.707 32.7402 142.632 32.7103 142.575 32.6493C142.516 32.5895 142.487 32.5124 142.487 32.4215V29.7704C142.487 29.6784 142.516 29.6024 142.575 29.5426C142.634 29.4828 142.708 29.4517 142.799 29.4517C142.887 29.4517 142.961 29.4816 143.022 29.5426C143.083 29.6036 143.113 29.6795 143.113 29.7704V30.1202L143 30.1823C143.029 30.0903 143.08 29.9982 143.153 29.9039C143.225 29.8107 143.314 29.7221 143.419 29.6416C143.524 29.5599 143.64 29.4954 143.769 29.4482C143.899 29.4011 144.037 29.3781 144.182 29.3781Z" fill="#277CFB"/>
<path d="M153.505 29.4218C153.584 29.4218 153.653 29.4517 153.714 29.5127C153.775 29.5736 153.805 29.6507 153.805 29.7474C153.805 29.7681 153.803 29.7888 153.8 29.8095C153.795 29.8302 153.789 29.8486 153.781 29.8659L152.824 32.5411C152.799 32.6125 152.755 32.6654 152.693 32.7011C152.631 32.7367 152.565 32.7506 152.499 32.7414C152.379 32.7333 152.289 32.6666 152.23 32.5411L151.523 30.6656L151.667 30.6783L151.016 32.5411C150.957 32.6666 150.868 32.7333 150.747 32.7414C150.685 32.7494 150.62 32.7367 150.556 32.7011C150.491 32.6654 150.446 32.6125 150.421 32.5411L149.457 29.8659C149.44 29.8279 149.432 29.7888 149.432 29.7474C149.432 29.6599 149.459 29.584 149.516 29.5196C149.572 29.4551 149.648 29.4229 149.744 29.4229C149.811 29.4229 149.869 29.4402 149.922 29.4735C149.974 29.5069 150.011 29.5564 150.032 29.6231L150.833 31.8795L150.689 31.8669L151.34 30.1605C151.394 30.0316 151.49 29.9672 151.628 29.9672C151.703 29.9672 151.761 29.9844 151.803 30.0166C151.844 30.05 151.878 30.0983 151.903 30.1605L152.566 31.8738L152.397 31.8922L153.204 29.6231C153.247 29.4885 153.346 29.4218 153.505 29.4218Z" fill="#277CFB"/>
<defs>
<linearGradient id="paint0_linear_2785_1265" x1="18.5151" y1="0.000747916" x2="18.5151" y2="36.8807" gradientUnits="userSpaceOnUse">
<stop stop-color="#00A8FF"/>
<stop offset="1" stop-color="#1B4DFF"/>
</linearGradient>
</defs>
</svg>
