<svg width="225" height="60" viewBox="0 0 225 60" fill="none" xmlns="http://www.w3.org/2000/svg">
<rect y="5" width="50" height="50" rx="10" fill="white"/>
<path d="M15.1808 20.8229L16.936 15.8377C17.0078 15.6338 17.1822 15.5 17.3763 15.5H25.7963C26.1351 15.5 26.3644 15.8905 26.2331 16.2438L24.3805 21.229C24.3065 21.4279 24.1343 21.5573 23.9436 21.5573H15.6211C15.2861 21.5573 15.0569 21.1749 15.1808 20.8229Z" fill="#06558B"/>
<path d="M31.9101 43.7656L33.6653 38.7804C33.7371 38.5765 33.9115 38.4427 34.1056 38.4427H42.5256C42.8644 38.4427 43.0938 38.8332 42.9625 39.1865L41.1098 44.1717C41.0359 44.3706 40.8637 44.5 40.6729 44.5H32.3504C32.0154 44.5 31.7862 44.1176 31.9101 43.7656Z" fill="#0372BD"/>
<path d="M22.6763 24.9344H14.1041C13.9111 24.9344 13.7374 25.0667 13.6649 25.269L7.03521 43.7625C6.90886 44.115 7.13816 44.5 7.47439 44.5H16.0019C16.1944 44.5 16.3679 44.3682 16.4406 44.1665L23.1151 25.673C23.2424 25.3204 23.0131 24.9344 22.6763 24.9344Z" fill="black"/>
<path d="M19.2564 43.7657L29.0683 15.8914C29.1401 15.6874 29.3145 15.5536 29.5086 15.5536H38.0907C38.4242 15.5536 38.6533 15.9329 38.5322 16.2843L28.9257 44.1586C28.8548 44.3645 28.6795 44.5 28.4841 44.5H19.6967C19.3618 44.5 19.1325 44.1177 19.2564 43.7657Z" fill="black"/>
<path d="M60.7363 37L63.5363 23H66.7963L63.9963 37H60.7363ZM70.1988 37L72.4588 25.64H67.9788L68.5188 23H80.7188L80.1788 25.64H75.7188L73.4388 37H70.1988ZM78.742 37L79.162 34.9L89.802 24.46L90.082 25.64H81.222L81.762 23H93.522L93.102 25.1L82.482 35.54L82.202 34.36H91.522L90.982 37H78.742ZM103.404 28.64H110.144L109.644 31.16H102.904L103.404 28.64ZM102.484 34.4H110.124L109.584 37H98.7441L101.544 23H112.124L111.584 25.6H104.244L102.484 34.4ZM112.162 37L114.962 23H120.822C122.262 23 123.495 23.24 124.522 23.72C125.562 24.1867 126.355 24.86 126.902 25.74C127.449 26.6067 127.722 27.64 127.722 28.84C127.722 30.08 127.509 31.2 127.082 32.2C126.669 33.2 126.075 34.06 125.302 34.78C124.529 35.4867 123.609 36.0333 122.542 36.42C121.475 36.8067 120.295 37 119.002 37H112.162ZM115.942 34.34H119.102C120.235 34.34 121.195 34.1067 121.982 33.64C122.782 33.1733 123.389 32.54 123.802 31.74C124.229 30.94 124.442 30.0333 124.442 29.02C124.442 28.3267 124.295 27.7333 124.002 27.24C123.709 26.7333 123.262 26.3467 122.662 26.08C122.075 25.8 121.342 25.66 120.462 25.66H117.682L115.942 34.34ZM135.285 37.24C133.925 37.24 132.792 36.9733 131.885 36.44C130.979 35.9067 130.339 35.1667 129.965 34.22C129.605 33.26 129.552 32.1333 129.805 30.84L131.365 23H134.625L133.065 30.78C132.945 31.4067 132.912 31.9533 132.965 32.42C133.019 32.8867 133.152 33.2733 133.365 33.58C133.592 33.8867 133.899 34.1133 134.285 34.26C134.672 34.4067 135.125 34.48 135.645 34.48C136.299 34.48 136.865 34.3533 137.345 34.1C137.825 33.8467 138.225 33.4467 138.545 32.9C138.865 32.3533 139.112 31.6467 139.285 30.78L140.845 23H144.025L142.445 30.98C142.032 33.0467 141.225 34.6067 140.025 35.66C138.825 36.7133 137.245 37.24 135.285 37.24ZM151.807 37.24C150.381 37.24 149.147 36.9867 148.107 36.48C147.081 35.96 146.287 35.2467 145.727 34.34C145.167 33.42 144.887 32.36 144.887 31.16C144.887 29.9733 145.094 28.8667 145.507 27.84C145.934 26.8133 146.527 25.9267 147.287 25.18C148.061 24.42 148.974 23.8267 150.027 23.4C151.094 22.9733 152.281 22.76 153.587 22.76C154.841 22.76 155.947 22.9733 156.907 23.4C157.867 23.8267 158.594 24.44 159.087 25.24L156.747 27.16C156.387 26.6267 155.927 26.22 155.367 25.94C154.807 25.66 154.141 25.52 153.367 25.52C152.581 25.52 151.867 25.66 151.227 25.94C150.587 26.2067 150.034 26.5933 149.567 27.1C149.114 27.5933 148.767 28.1733 148.527 28.84C148.287 29.5067 148.167 30.2133 148.167 30.96C148.167 31.6667 148.321 32.2867 148.627 32.82C148.934 33.34 149.381 33.7467 149.967 34.04C150.554 34.3333 151.261 34.48 152.087 34.48C152.807 34.48 153.481 34.3533 154.107 34.1C154.734 33.8333 155.301 33.42 155.807 32.86L157.727 34.82C156.994 35.6733 156.121 36.2933 155.107 36.68C154.107 37.0533 153.007 37.24 151.807 37.24ZM157.021 37L166.061 23H169.281L172.721 37H169.481L166.761 24.6H168.041L160.481 37H157.021ZM160.761 34L162.081 31.54H169.301L169.681 34H160.761ZM176.371 37L178.631 25.64H174.151L174.691 23H186.891L186.351 25.64H181.891L179.611 37H176.371ZM185.834 37L188.634 23H191.894L189.094 37H185.834ZM199.656 37.24C198.243 37.24 197.023 36.9867 195.996 36.48C194.983 35.96 194.203 35.2467 193.656 34.34C193.11 33.42 192.836 32.36 192.836 31.16C192.836 29.96 193.043 28.8533 193.456 27.84C193.87 26.8133 194.456 25.9267 195.216 25.18C195.99 24.42 196.903 23.8267 197.956 23.4C199.023 22.9733 200.203 22.76 201.496 22.76C202.91 22.76 204.123 23.02 205.136 23.54C206.163 24.0467 206.95 24.76 207.496 25.68C208.043 26.5867 208.316 27.64 208.316 28.84C208.316 30.04 208.11 31.1533 207.696 32.18C207.283 33.1933 206.69 34.08 205.916 34.84C205.156 35.5867 204.243 36.1733 203.176 36.6C202.123 37.0267 200.95 37.24 199.656 37.24ZM199.936 34.48C200.723 34.48 201.43 34.34 202.056 34.06C202.696 33.7667 203.236 33.3667 203.676 32.86C204.116 32.3533 204.45 31.7733 204.676 31.12C204.916 30.4533 205.036 29.7533 205.036 29.02C205.036 28.3267 204.89 27.72 204.596 27.2C204.303 26.6667 203.87 26.2533 203.296 25.96C202.736 25.6667 202.043 25.52 201.216 25.52C200.43 25.52 199.723 25.6667 199.096 25.96C198.47 26.24 197.93 26.6333 197.476 27.14C197.036 27.6467 196.696 28.2333 196.456 28.9C196.23 29.5533 196.116 30.2467 196.116 30.98C196.116 31.6733 196.263 32.2867 196.556 32.82C196.863 33.34 197.296 33.7467 197.856 34.04C198.43 34.3333 199.123 34.48 199.936 34.48ZM209.271 37L212.071 23H214.751L220.771 33.14L219.711 33.08L221.711 23H224.911L222.111 37H219.451L213.411 26.86L214.491 26.92L212.471 37H209.271Z" fill="white"/>
</svg>
