<svg width="342" height="40" viewBox="0 0 342 40" fill="none" xmlns="http://www.w3.org/2000/svg">
<path d="M60.2073 11.2593C55.2235 20.5158 50.2332 29.7699 45.2365 39.0216C45.1821 39.1735 45.0531 39.3055 44.8738 39.3925C44.6946 39.4796 44.4777 39.5156 44.2643 39.4937C39.1639 39.4772 34.0634 39.4937 28.9597 39.4937C26.6914 39.4937 25.7193 38.4433 26.5521 36.8971C32.292 26.2495 38.0351 15.6043 43.7815 4.96137C44.5171 3.59934 45.2592 2.23731 45.9818 0.870558C46.1082 0.634504 46.241 0.509391 46.6299 0.511752C52.9466 0.521194 59.2622 0.521194 65.5767 0.511752C65.6772 0.511752 65.9008 0.511752 66.0433 0.511752C64.9157 2.61027 63.7556 4.68047 62.615 6.79787" fill="black"/>
<path d="M35.8327 8.90352H19.1542C17.7057 8.90352 16.7076 8.01123 17.2099 7.18032L20.6286 1.00516C20.7096 0.859828 20.8487 0.735563 21.0278 0.648449C21.2069 0.561334 21.4178 0.515379 21.6331 0.516526L40.8586 0.5L36.5067 8.60609C36.4459 8.69787 36.3499 8.77483 36.2303 8.82762C36.1106 8.88042 35.9725 8.90679 35.8327 8.90352Z" fill="url(#paint0_linear_6618_492)"/>
<path d="M69.9838 39.4985H53.3539C51.9087 39.4985 50.9106 38.6086 51.4096 37.7753L54.7279 31.6001C54.8083 31.4547 54.9473 31.3304 55.1266 31.2436C55.306 31.1568 55.5171 31.1115 55.7324 31.1139H75L70.6773 39.2011C70.6152 39.2951 70.5161 39.3736 70.3927 39.4266C70.2692 39.4796 70.1269 39.5046 69.9838 39.4985Z" fill="url(#paint1_linear_6618_492)"/>
<path d="M34.151 13.0156H14.3195L0 39.4985H19.8185L34.151 13.0156Z" fill="black"/>
<path d="M174.824 32.5723L174.224 36H163.193L163.779 32.5723H174.824ZM168.306 14.6719L164.6 36H160.308L163.999 14.6719H168.306ZM174.985 23.3584L174.399 26.6982H164.805L165.391 23.3584H174.985ZM177.9 14.6719L177.3 18.1143H166.284L166.899 14.6719H177.9ZM183.291 36H178.545L179.16 32.5723L183.423 32.6016C184.751 32.6016 185.869 32.2891 186.777 31.6641C187.686 31.0293 188.398 30.1992 188.916 29.1738C189.443 28.1387 189.8 27.0205 189.985 25.8193L190.117 24.7793C190.205 24.0371 190.234 23.2852 190.205 22.5234C190.176 21.752 190.034 21.0391 189.78 20.3848C189.536 19.7305 189.146 19.1982 188.608 18.7881C188.071 18.3779 187.344 18.1582 186.426 18.1289L181.562 18.1143L182.163 14.6719L186.558 14.6865C187.983 14.7158 189.224 15.0088 190.278 15.5654C191.333 16.1123 192.197 16.8545 192.871 17.792C193.545 18.7295 194.014 19.8037 194.277 21.0146C194.541 22.2158 194.595 23.4805 194.438 24.8086L194.321 25.8486C194.126 27.2744 193.721 28.6074 193.105 29.8477C192.5 31.0879 191.714 32.1719 190.747 33.0996C189.79 34.0176 188.682 34.7354 187.422 35.2529C186.162 35.7607 184.785 36.0098 183.291 36ZM184.683 14.6719L180.977 36H176.685L180.376 14.6719H184.683ZM210.742 14.6719H215.02L212.617 28.749C212.393 30.3311 211.87 31.6934 211.05 32.8359C210.239 33.9688 209.194 34.8379 207.915 35.4434C206.646 36.0391 205.215 36.3271 203.623 36.3076C202.139 36.2783 200.845 35.9561 199.741 35.3408C198.647 34.7158 197.827 33.8467 197.28 32.7334C196.733 31.6104 196.553 30.2871 196.738 28.7637L199.141 14.6719H203.418L201.03 28.7783C200.942 29.5107 200.967 30.1846 201.104 30.7998C201.25 31.4053 201.543 31.8984 201.982 32.2793C202.432 32.6504 203.066 32.8457 203.887 32.8652C204.756 32.8945 205.498 32.7383 206.113 32.3965C206.729 32.0547 207.222 31.5713 207.593 30.9463C207.964 30.3115 208.213 29.584 208.34 28.7637L210.742 14.6719ZM227.939 28.9395L232.129 28.8809C231.943 30.4531 231.411 31.8008 230.532 32.9238C229.663 34.0371 228.569 34.8867 227.251 35.4727C225.933 36.0488 224.502 36.3223 222.959 36.293C221.533 36.2637 220.332 35.9609 219.355 35.3848C218.379 34.7988 217.612 34.0176 217.056 33.041C216.499 32.0645 216.133 30.9756 215.957 29.7744C215.781 28.5732 215.771 27.3428 215.928 26.083L216.133 24.6035C216.328 23.2754 216.685 21.9912 217.202 20.751C217.729 19.5107 218.418 18.4072 219.268 17.4404C220.117 16.4736 221.123 15.7119 222.285 15.1553C223.447 14.5986 224.766 14.335 226.24 14.3643C227.783 14.3936 229.087 14.7256 230.151 15.3604C231.226 15.9854 232.051 16.8594 232.627 17.9824C233.213 19.0957 233.54 20.3994 233.608 21.8936L229.346 21.8789C229.355 21.0879 229.258 20.3945 229.053 19.7988C228.857 19.1934 228.516 18.7246 228.027 18.3926C227.539 18.0508 226.865 17.8652 226.006 17.8359C225.068 17.8066 224.272 17.9922 223.618 18.3926C222.964 18.793 222.422 19.3301 221.992 20.0039C221.572 20.6777 221.24 21.415 220.996 22.2158C220.762 23.0166 220.586 23.8027 220.469 24.5742L220.264 26.0977C220.186 26.7324 220.132 27.4355 220.103 28.207C220.073 28.9688 220.137 29.6963 220.293 30.3896C220.449 31.083 220.752 31.6592 221.201 32.1182C221.65 32.5674 222.319 32.8066 223.208 32.8359C224.087 32.8652 224.844 32.7285 225.479 32.4258C226.123 32.123 226.646 31.6738 227.046 31.0781C227.456 30.4824 227.754 29.7695 227.939 28.9395ZM245.312 18.5391L236.729 36H232.012L243.408 14.6719H246.426L245.312 18.5391ZM247.012 36L244.404 18.085L244.565 14.6719H247.393L251.421 36H247.012ZM248.096 28.0605L247.495 31.5029H236.523L237.124 28.0605H248.096ZM264.575 14.6719L260.884 36H256.592L260.298 14.6719H264.575ZM270.933 14.6719L270.332 18.1143H253.442L254.043 14.6719H270.933ZM277.905 14.6719L274.214 36H269.922L273.628 14.6719H277.905ZM297.095 24.7646L296.978 25.79C296.782 27.1572 296.416 28.4756 295.879 29.7451C295.342 31.0146 294.639 32.1475 293.77 33.1436C292.9 34.1299 291.865 34.9111 290.664 35.4873C289.473 36.0537 288.12 36.3223 286.606 36.293C285.161 36.2637 283.936 35.9512 282.93 35.3555C281.934 34.75 281.143 33.9492 280.557 32.9531C279.98 31.957 279.595 30.8486 279.399 29.6279C279.204 28.3975 279.185 27.1377 279.341 25.8486L279.458 24.8379C279.653 23.4707 280.02 22.1572 280.557 20.8975C281.104 19.6377 281.812 18.5146 282.681 17.5283C283.56 16.5322 284.595 15.751 285.786 15.1846C286.987 14.6182 288.335 14.3496 289.829 14.3789C291.274 14.3984 292.495 14.7109 293.491 15.3164C294.497 15.9121 295.288 16.708 295.864 17.7041C296.45 18.6904 296.841 19.7988 297.036 21.0293C297.231 22.25 297.251 23.4951 297.095 24.7646ZM292.627 25.8486L292.773 24.7939C292.852 24.1299 292.891 23.4121 292.891 22.6406C292.9 21.8594 292.812 21.1123 292.627 20.3994C292.441 19.6768 292.109 19.0859 291.631 18.627C291.162 18.1582 290.483 17.9043 289.595 17.8652C288.638 17.8359 287.817 18.0264 287.134 18.4365C286.46 18.8467 285.894 19.4033 285.435 20.1064C284.985 20.7998 284.629 21.5615 284.365 22.3916C284.111 23.2119 283.926 24.0176 283.809 24.8086L283.677 25.8633C283.589 26.5176 283.54 27.2402 283.53 28.0312C283.53 28.8125 283.623 29.5645 283.809 30.2871C283.994 31 284.326 31.5908 284.805 32.0596C285.283 32.5283 285.967 32.7822 286.855 32.8213C287.803 32.8506 288.613 32.6553 289.287 32.2354C289.971 31.8154 290.542 31.2588 291.001 30.5654C291.46 29.8623 291.821 29.1006 292.085 28.2803C292.349 27.4502 292.529 26.6396 292.627 25.8486ZM318.804 14.6719L315.098 36H310.938L305.034 21.542L302.529 36H298.237L301.929 14.6719H306.104L312.021 29.1445L314.526 14.6719H318.804Z" fill="black"/>
<path d="M92.5585 21.1193H97.6713L94.1128 35.4754H89L92.5585 21.1193ZM93.8367 18.4927C93.5658 18.301 93.3497 18.0647 93.2032 17.7997C93.0567 17.5348 92.9833 17.2476 92.988 16.9577C92.9775 16.6246 93.0571 16.2936 93.2213 15.9876C93.3854 15.6815 93.6303 15.4076 93.9389 15.1848C94.2797 14.9404 94.6775 14.7529 95.1094 14.6331C95.5412 14.5133 95.9985 14.4637 96.4544 14.4871C97.2585 14.456 98.0475 14.67 98.6632 15.0863C98.9318 15.2669 99.1472 15.4931 99.294 15.7486C99.4407 16.004 99.5152 16.2824 99.5119 16.5637C99.5291 16.9104 99.4521 17.256 99.2861 17.5763C99.1201 17.8967 98.8691 18.1842 98.5507 18.4188C97.8646 18.905 96.9699 19.1581 96.0556 19.1247C95.6521 19.1418 95.2484 19.0948 94.8676 18.9864C94.4868 18.8779 94.1365 18.7101 93.8367 18.4927Z" fill="url(#paint2_linear_6618_492)"/>
<path d="M110.003 18.263H101.567L102.59 14.2656H125.597L124.575 18.263H116.149L111.844 35.5001H105.708L110.003 18.263Z" fill="url(#paint3_linear_6618_492)"/>
<path d="M149.914 17.4504L132.131 31.4781H146.928L145.905 35.4755H122.806L123.593 32.299L141.447 18.263H127.489L128.512 14.2656H150.711L149.914 17.4504Z" fill="url(#paint4_linear_6618_492)"/>
<defs>
<linearGradient id="paint0_linear_6618_492" x1="28.9685" y1="0.5" x2="28.9685" y2="8.90379" gradientUnits="userSpaceOnUse">
<stop stop-color="#2A70B8"/>
<stop offset="1" stop-color="#1D5388"/>
</linearGradient>
<linearGradient id="paint1_linear_6618_492" x1="63.1398" y1="31.1138" x2="63.1398" y2="39.4994" gradientUnits="userSpaceOnUse">
<stop stop-color="#2A70B8"/>
<stop offset="1" stop-color="#2A70B8"/>
</linearGradient>
<linearGradient id="paint2_linear_6618_492" x1="89" y1="24.9771" x2="99.471" y2="24.9771" gradientUnits="userSpaceOnUse">
<stop stop-color="#2A70B8"/>
<stop offset="1" stop-color="#1D5388"/>
</linearGradient>
<linearGradient id="paint3_linear_6618_492" x1="101.547" y1="24.8706" x2="125.597" y2="24.8706" gradientUnits="userSpaceOnUse">
<stop stop-color="#2A70B8"/>
<stop offset="1" stop-color="#1D5388"/>
</linearGradient>
<linearGradient id="paint4_linear_6618_492" x1="122.806" y1="24.8706" x2="150.701" y2="24.8706" gradientUnits="userSpaceOnUse">
<stop stop-color="#2A70B8"/>
<stop offset="1" stop-color="#1D5388"/>
</linearGradient>
</defs>
</svg>
