<svg width="23" height="23" viewBox="0 0 23 23" fill="none" xmlns="http://www.w3.org/2000/svg">
<g clip-path="url(#clip0_2785_1259)">
<path d="M21.5625 20.1251H1.43751C0.643567 20.1251 0 19.4815 0 18.6876C0 17.8937 0.643567 17.2501 1.43751 17.2501H21.5625C22.3564 17.2501 23 17.8937 23 18.6876C23 19.4815 22.3564 20.1251 21.5625 20.1251Z" fill="black"/>
<path d="M21.5625 12.9376H1.43751C0.643567 12.9376 0 12.294 0 11.5001C0 10.7062 0.643567 10.0626 1.43751 10.0626H21.5625C22.3564 10.0626 23 10.7062 23 11.5001C23 12.2941 22.3564 12.9376 21.5625 12.9376Z" fill="black"/>
<path d="M21.5625 5.75002H1.43751C0.643567 5.75002 0 5.10645 0 4.31251C0 3.51857 0.643567 2.875 1.43751 2.875H21.5625C22.3564 2.875 23 3.51857 23 4.31251C23 5.10645 22.3564 5.75002 21.5625 5.75002Z" fill="black"/>
</g>
<defs>
<clipPath id="clip0_2785_1259">
<rect width="23" height="23" fill="white"/>
</clipPath>
</defs>
</svg>
