<svg width="16" height="17" viewBox="0 0 16 17" fill="none" xmlns="http://www.w3.org/2000/svg">
<g clip-path="url(#clip0_9276_1114)">
<path d="M-12 8.80029C-12 11.4267 -11.4827 14.0275 -10.4776 16.454C-9.4725 18.8805 -7.99931 21.0853 -6.14213 22.9424C-4.28496 24.7996 -2.08018 26.2728 0.346332 27.2779C2.77284 28.283 5.37356 28.8003 8 28.8003C10.6264 28.8003 13.2272 28.283 15.6537 27.2779C18.0802 26.2728 20.285 24.7996 22.1421 22.9424C23.9993 21.0853 25.4725 18.8805 26.4776 16.454C27.4827 14.0275 28 11.4267 28 8.80029C28 6.17386 27.4827 3.57314 26.4776 1.14663C25.4725 -1.27989 23.9993 -3.48467 22.1421 -5.34184C20.285 -7.19901 18.0802 -8.6722 15.6537 -9.6773C13.2272 -10.6824 10.6264 -11.1997 8 -11.1997C5.37356 -11.1997 2.77284 -10.6824 0.346332 -9.6773C-2.08018 -8.6722 -4.28496 -7.19901 -6.14213 -5.34184C-7.99931 -3.48467 -9.4725 -1.27989 -10.4776 1.14663C-11.4827 3.57314 -12 6.17386 -12 8.80029Z" fill="#FFF1DC"/>
<path d="M13.564 7.19897C13.4626 6.78012 13.0785 6.0837 12.6806 5.51064C12.5055 5.25893 12.1175 5.32061 12.0259 5.61411C11.8827 6.06778 11.6548 6.5891 11.2589 7.0577C11.1863 7.14326 11.045 7.09948 11.038 6.98706C10.9624 5.82602 10.4122 2.82443 6.53214 2.40259C6.26452 2.37374 6.05559 2.63341 6.14314 2.8881C6.43564 3.74371 6.67043 5.38827 5.33031 6.39609C5.27559 6.43688 5.19998 6.42296 5.1572 6.37023C4.7105 5.80115 4.15336 5.45194 3.39823 5.31067C3.13458 5.26192 2.91272 5.50168 2.97341 5.76334C3.09081 6.26775 3.13956 7.12833 2.65903 8.30032C1.85217 10.2652 0.921943 15.0109 8.32494 15.0109C15.7279 15.0109 13.7063 7.78695 13.564 7.19897ZM4.92141 12.5018C4.86495 12.5547 4.79861 12.596 4.72617 12.6232C4.65373 12.6505 4.57662 12.6632 4.49927 12.6606C4.42192 12.658 4.34583 12.6402 4.27538 12.6082C4.20492 12.5761 4.14148 12.5305 4.08869 12.4739C3.10275 11.4193 3.53155 9.4524 3.58328 9.23154C3.6579 8.91516 3.97527 8.71817 4.29165 8.79379C4.36685 8.81146 4.43784 8.84378 4.50054 8.88891C4.56325 8.93403 4.61645 8.99106 4.65711 9.05676C4.69776 9.12245 4.72507 9.19551 4.73747 9.27176C4.74988 9.34801 4.74713 9.42596 4.7294 9.50115C4.63588 9.90309 4.4757 11.1626 4.94827 11.669C5.17113 11.9068 5.15919 12.2799 4.92141 12.5018Z" fill="#FC7032"/>
<path d="M13.4387 6.83683C13.2686 6.43788 12.9781 5.93944 12.6806 5.51064C12.5055 5.25893 12.1175 5.32061 12.0259 5.61411C11.8827 6.06778 11.6548 6.5891 11.2589 7.0577C11.1863 7.14326 11.045 7.09948 11.038 6.98706C10.9624 5.82602 10.4122 2.82443 6.53214 2.40259C6.26452 2.37374 6.05559 2.63341 6.14314 2.8881C6.43564 3.74371 6.67043 5.38827 5.33031 6.39609C5.27559 6.43688 5.19998 6.42296 5.1572 6.37023C4.71049 5.80115 4.15335 5.45194 3.39823 5.31067C3.13458 5.26192 2.91272 5.50168 2.97341 5.76334C3.09081 6.26775 3.13956 7.12833 2.65902 8.30032C1.95464 10.0155 1.15773 13.8478 5.88745 14.796C10.0033 14.3891 13.2447 11.0114 13.4387 6.83683ZM4.92141 12.5018C4.86495 12.5547 4.7986 12.596 4.72617 12.6232C4.65373 12.6505 4.57662 12.6632 4.49927 12.6606C4.42191 12.658 4.34583 12.6402 4.27537 12.6082C4.20492 12.5761 4.14148 12.5305 4.08869 12.4739C3.10275 11.4193 3.53154 9.4524 3.58328 9.23154C3.6579 8.91516 3.97527 8.71817 4.29164 8.79379C4.36685 8.81146 4.43783 8.84378 4.50054 8.88891C4.56325 8.93403 4.61645 8.99106 4.6571 9.05676C4.69776 9.12245 4.72507 9.19551 4.73747 9.27176C4.74988 9.34801 4.74713 9.42596 4.7294 9.50115C4.63588 9.90309 4.4757 11.1626 4.94827 11.669C5.17113 11.9068 5.15919 12.2799 4.92141 12.5018Z" fill="#FF7C33"/>
<path d="M10.8269 5.7723C10.4419 4.42819 9.39324 2.71399 6.53094 2.40259C6.26331 2.37374 6.05438 2.63341 6.14193 2.8881C6.43443 3.74371 6.66923 5.38827 5.32911 6.39609C5.27439 6.43688 5.19877 6.42296 5.15599 6.37023C4.70929 5.80115 4.15215 5.45194 3.39702 5.31067C3.13338 5.26192 2.91151 5.50168 2.9722 5.76334C3.0896 6.26775 3.13835 7.12833 2.65782 8.30032C2.30562 9.15792 1.92956 10.5458 2.23499 11.8382C2.4081 11.8491 2.58121 11.8561 2.75731 11.8561C3.06672 11.8561 3.37116 11.8382 3.67161 11.8053C3.24878 10.7458 3.54029 9.41261 3.58207 9.23253C3.65669 8.91616 3.97406 8.71917 4.29044 8.79478C4.36564 8.81246 4.43663 8.84478 4.49933 8.8899C4.56204 8.93502 4.61524 8.99206 4.6559 9.05775C4.69655 9.12344 4.72386 9.1965 4.73626 9.27276C4.74867 9.34901 4.74592 9.42696 4.72819 9.50215C4.63964 9.88319 4.4924 11.0343 4.87941 11.5835C7.74769 10.8363 10.0151 8.61172 10.8269 5.7723Z" fill="#FF8D4D"/>
<path d="M6.531 2.40259C6.26337 2.37374 6.05444 2.63341 6.14199 2.8881C6.43449 3.74371 6.66929 5.38827 5.32916 6.39609C5.27445 6.43688 5.19883 6.42296 5.15605 6.37023C4.70935 5.80115 4.15221 5.45194 3.39708 5.31067C3.13343 5.26192 2.91157 5.50168 2.97226 5.76334C3.08966 6.26775 3.13841 7.12833 2.65788 8.30032C2.60798 8.42327 2.56088 8.54733 2.5166 8.67241C5.42766 8.00881 7.76367 5.83497 8.65211 3.01644C8.089 2.71698 7.39257 2.49611 6.531 2.40259Z" fill="#FFA56A"/>
</g>
<defs>
<clipPath id="clip0_9276_1114">
<rect y="0.800293" width="16" height="16" rx="8" fill="white"/>
</clipPath>
</defs>
</svg>
